<svg id="Layer_1" enable-background="new 0 0 135 135" height="512" viewBox="0 0 135 135" width="512" xmlns="http://www.w3.org/2000/svg"><g id="Pencil"><g><g><g><g><path d="m33.1137695 93.9285202c1.2158546 4.2767181 6.7842979 6.6489105 10.710743 4.5628433-.7982407 1.9213257.67099 4.2575989 2.664753 4.8522339 1.993763.5946274 4.1938591-.2274704 5.7648888-1.5914841 1.5710335-1.3640137 2.6356697-3.204834 3.6710243-5.0094757 10.6760788-18.608551 21.3521652-37.2170982 32.028244-55.8256493.6412201-1.1176605 1.3046112-2.3337517 1.1657181-3.6147881-.1693344-1.5619164-1.4678268-2.7322044-2.7159882-3.6863289-6.6296158-5.0678349-14.442131-8.5780029-22.6337318-10.1693497-.0357323 1.3708401-.0714607 2.7416821-.107193 4.112524-.0237617.9149437-1.5254745 2.6685944-1.994194 3.481987-.7632179 1.3244495-1.5304642 2.646574-2.3017311 3.9663525-1.4782562 2.5295792-2.9712601 5.0505333-4.4789162 7.5627022-3.0480804 5.0789452-6.1559982 10.1219788-9.3229141 15.1276932-6.2657166 9.9037666-12.7622299 19.6615486-19.4828854 29.2624245-1.8605728 2.6579437-3.5665703 4.3549423-.1029739 6.4534683 2.1110743 1.2790681 4.8732928 1.5763169 7.1351565.5148469z" fill="#ffcb05"/></g></g><g><g><path d="m84.1210785 3.474474c-1.9701843.4756756-3.9736786 1.7264624-5.1046143 3.8312335s-1.0997849 5.1208587.4042816 6.5064263c1.1419601 1.0519867 2.8440857.9689837 4.2713547.2273302 1.3427582-.6977377 2.545929-1.9678602 3.189209-3.571516.6432724-1.6036558.6746063-3.5326977-.0398865-4.929348-.7144852-1.3966508-2.1991806-2.1470265-3.5901031-1.6709034" fill="#fff"/></g></g><g><g><path d="m97.5409851 10.3441906c-1.9701767.4756756-3.9736786 1.7264624-5.1046066 3.831234-1.1309357 2.1047707-1.0997925 5.1208591.4042816 6.5064259 1.1419601 1.0519867 2.8440857.9689846 4.2713547.2273312 1.3427582-.6977386 2.5459213-1.9678612 3.1892014-3.571516s.6746063-3.5326986-.0398788-4.9293489c-.7144928-1.3966503-2.1991806-2.1470261-3.5901108-1.6709032" fill="#fff"/></g></g></g><g><path d="m26.004282 86.1528778c-1.4837036 2.3625488-2.4534912 3.9855957-2.6724854 4.5319824-.3789959-.1604614-.2276497.6996307-.1282959 1.1008301-.3670654 1.9267578-.9425659 7.6708984-1.5299072 14.463623-1.1746159 13.5873947-1.1425114 13.9075851-1.0109863 14.4020996.2573643 1.0395889 1.207262 1.5563736 2.2236328 1.3911133.7426414-.1207733 1.2858143-.3776932 1.9818115-.8022461.4807396-.2915649 1.5063477-.9135742 1.9230957-1.1660156 11.0743542-6.4926147 17.5909901-9.9309616 22.2286358-13.3237305 2.451416-1.8098145 2.3756104-2.137207 2.2033691-2.3967285-.0357666-.0539551-.0801392-.0986328-.1393433-.1318359.4580688-.4846191 1.5115967-1.9006348 2.9721069-3.9726563 1.8625488-2.6555176 4.3762207-6.3632813 7.0825195-10.5041504 11.2598038-17.1596451 21.68927-35.2521286 26.1557617-43.981205-.3440094 1.6522141 3.7525558 12.2989044-2.319458 28.1723671-.1903076.5466309-.3439941.9882813-.4686279 1.3461914-.4962158 1.4333496-.2734375 1.6340332.0079346 1.7851563.2813721.1513672.5603027.2419434 1.4613037-1.0639648.4313431-.5911102 1.2298737-2.1445236 1.6878662-3.2736816 1.7091675-4.0495682 2.5965271-8.6343307 2.6549072-12.7822304.1624985-8.3948059-2.6078186-14.4274979-2.96875-14.2873535-.0025635.0007324-.00354.0058594-.0059814.0070801.5722504-1.1201668 1.4598465-2.878643 1.9038696-4.0617676.9101791.5840721 2.7913361-.5523643 2.8643188-2.4990234 1.5225677.149437 3.5186081-2.165844 2.3806152-4.8776855.0028076-.0041504.0047607-.0065918.0075684-.0107422 2.6412659-3.7898521 5.0765457-4.4033012 6.9100342-8.8901348.3800049-.9299316.7199707-1.9799805.7799683-3.25.0700073-1.2800293-.2699585-2.6398926-.8899536-3.869873-.0200195-.0500488-.0500488-.0900879-.0700073-.1401367.2600098-.5800781.4400024-1.1599121.539978-1.7199707.6362228-3.5687675-1.1358795-6.0857134-3.3099976-6.4399424-1-.1501465-1.4899902.1599121-1.6799927.329834-.0300293.0302734-.0499878.050293-.0599976.0800781-.6594467.1015491-1.5825806.422924-2.4100342.9399414-1.5099487-.9697266-3.1099854-1.9499512-4.7199707-3.0200195-.3699951-.2397461-.7399902-.449707-1.1300049-.6499023-.217186-4.0506535-3.8890152-5.4247751-5.1699829-4.1398926-1.3235397.2029848-3.0278091 1.0681546-4.2399902 2.5200193-.8500366.2399902-1.6600342.619873-2.3500366 1.1098633-1.8300171 1.2900391-2.8999634 3.1401367-3.7000122 4.6599121-3.2052841 5.9099054-3.7911224 6.0504789-4.3858032 6.9582529-1.0112991-.0864563-2.2768097-.0889168-3.0332642.6020508-.8149414.7009277-.989502 1.652832-.7921143 2.2133789.2045898.5761719.5712891.6638184.5948486.6149902.0703125-.0651855-.1363525-.2871094-.1365967-.7028809-.0174561-.3947754.253418-1.027832.8701172-1.4013672 2.0155029-1.3376923 11.5041122 3.4200077 13.6123047 4.6337891 4.4550018 2.4982796 7.6929474 5.2230301 11.1945801 8.4433575.4456787.4106445.824707.7753906 1.1199951 1.119873 1.2930222 1.4754639 1.0621109 2.8334961-.0754395 3.8571777-.2263184-.8078613-.7164917-1.5983887-1.3359375-2.2875977-4.7111053-5.0206356-10.660965-8.9300957-16.8114014-11.3002911-1.9949951-.7844238-4.0133057-1.4111328-5.8509521-1.8586426-.9067383-.2001953-1.7797852-.5004883-2.7919922-.4035645-1.0008545.0942383-1.8970947.8061523-2.0015869 1.7270508.1428833 1.1569824.6812744 1.7131348 1.1315918 1.9411621-.3766479.4294434-.9178467 1.1542969-1.7332764 2.3662109-2.9211613 4.2861579-8.1786801 13.2560561-36.5705544 57.8918479zm69.6555157-74.5947294c.4099731-.2800293.7799683-.5 1.0800171-.6699219.0499878.0900879.1199951.1699219.2599487.2199707.3297501.1910934 2.0411758.2826614 2.5500488 2.3999023.1399536.5700684.1900024 1.3400879.039978 2.170166-.3331604 1.8560724-1.3926773 2.864831-1.453064 2.965333-.2552261-1.3245144-1.3572006-2.3203182-2.84729-2.1530762-.8635788-.3761616-2.0224991-.2073822-2.7287598.7626953 0-.005127-.0009155-.0100098-.0009155-.0151367-.0099487-.0097656 0-.0097656 0-.0097656-.0784072-2.3181848 1.3153534-4.5218706 3.1000367-5.6701669zm-1.0015869 6.8200693.0031738-.0019531.0013428-.0004883.0117188-.0053711c.1184998.2570744-.0726089.7188377-.0996704.8188477-.1838379-.1665039-.223999-.2807617-.2313843-.418457-.0081787-.1640625.0698242-.2624512.0610352-.2697754-.0201416-.0219727.0882568-.059082.1517334-.0532227.0253906.0058594.0273438-.0102539.0849609-.0581055zm.123291-.0554199-.0014038.0004883.0028687-.0012207zm-11.461731-14.3044443c.1828156.3285723.5996475.2722888 1.2900391.5898438 2.3564529 1.2807899 1.9771881 4.961503.2199707 7.0300293-.3982086-1.1943083-1.6769791-1.8416185-2.7000122-1.6799316-.0100098-.0100098-.0199585-.0100098-.0199585 0-1.0350494-.2417078-2.3067627.2221622-2.8500366 1.4899902-.2537003-1.0876789-.1434326-2.4963589.4400024-3.8300781h.0100098c.7552719-1.6401559 2.0508041-2.7166883 3.6099853-3.5998536zm-1.3999634 9.1899414c-.2200317-.0600586-.3699951-.1899414-.4400024-.3000488-.1900024-.2700195-.1199951-.6599121-.0599976-.6999512 0-.0800781.3299561-.1401367.3399658-.1401367.1000366-.0200195.25.0800781.2300415.3100586.0299683.3100585-.080017.540039-.0700073.8300781zm5.2593994 13.6279306c-4.3663559-3.3431702-9.1804123-5.6661015-14.404541-7.2402344-1.2561035-.3603516-2.4976807-.7192383-3.6880493-.8554688.708519-.6344185 1.2754974-1.0740376 2.3731689-2.5024414 2.68293-3.3933678 3.5720444-6.1828499 6.1500244-7.7897959.0299683-.0200195.0499878-.0400391.0899658-.0500488-1.553772 4.6618538 1.5434875 8.6645384 5.9799805 6.8901367 2.2911301-.9127893 4.02314-3.0753374 4.5700073-5.380127.0543289.0325975-.3174362-.1997776 4.2700195 2.869873-1.3868942 1.5966177-2.0328903 3.8705587-1.7199707 5.920167.7767715 4.5899067 5.6761475 5.0437374 8.9099731 1.6599121.1699829.5600586.25 1.1101074.2199707 1.6298828-.0899658 1.7700195-.8899536 3.4101563-1.6199951 4.6501465-1.403389 2.2892437-3.526619 3.7952271-4.6185913 6.227293-.3668212-.4765623-3.4687727-3.6988257-6.5119628-6.0292948zm-45.1733398 81.939455c-2.662384 1.4925003-7.9750519 4.3911896-12.097105 6.7861328-.2671013-.71875-1.2772293-1.4720001-1.9990845-1.8955078-.713623-.4233398-1.973999-.8432617-3.0599365-.878418-.1876221-.0097656-.3638916-.0075684-.5336304-.0004883-.1287231-.0397949-.2476807-.0795898-.3963013-.1191406-.2979736-.0795898-.5464478.0585938-.7554321.3151855-.0491943.019043-.0905762.0378418-.1235352.0568848.0975342-2.2785645.1882324-4.541748.2670288-6.7004395.2111206-5.7902832.3381348-10.8293457.2924194-13.4104004.1369019.3183594.2965088.6523438.4968872 1.0019531 1.9208469 3.2493439 5.8441677 3.3186188 8.807066 1.1115723-.0258751.9115829.2881508 1.8973694.7501831 2.6855469 1.8556709 3.2876053 6.2045135 4.1349411 9.1055298 2.0192871.0073128 2.4855499 2.0216789 5.0678787 5.3786621 5.6225586-1.3173217.7314454-3.2599487 1.8100587-6.1327514 3.4052735zm23.2321777-83.3986835c-.1374512-.0812988-.2874756-.126709-.6604004.2307129-.0262451-.0302734-.0529175-.0510254-.078125-.0895996-.1148682-.1550293-.2376709-.3723145-.3399658-.6359863-.0998535-.2705078-.1923828-.5773926-.1223145-.8007813.0991211-.3574219.6151123-.7104492 1.2161865-.685791.612793-.0004883 1.4306641.329834 2.3077393.6257324 8.022995 2.7773209 14.9831238 7.0273705 21.5084229 13.2194805.6627197.6621094 1.0098877 1.2199707 1.1292725 1.6787109.1905441.6194496-.1618805 1.3347969-.6871948 1.7041016.0106049-.244873-.0811157-.3203125-.1871948-.3789063-1.1944885-.6624451-5.5567169 8.4132919-29.5742188 48.6333046-2.519165 4.2495117-4.800415 8.0976563-6.4528809 10.8850098-1.182373 2.0249023-2.0048218 3.4968262-2.3223267 4.1955566-.3499413-.7358704-1.2390175-.3224411-3.5231323-1.1584473-1.2236023-.4726639-2.0724449-1.0142212-2.8988037-2.0605469-.4962158-.6147461-.8024902-1.2753906-1.0403442-1.6960449.2617149-.3286591.5384521-.7935028.2901001-1.1315918 2.3303375-3.4197235 36.0866318-57.1898689 35.1140137-57.7834511-1.0022888-.611412-33.1892281 53.8106499-35.2640381 57.6228065-.6473656-.5754395-.9162445-.1423264-2.2858887.3796387-2.6318169.9714127-4.8528938.3143234-6.381958-1.3557129-.7935791-.8200684-1.1881714-1.7624512-1.4642334-2.2714844.5086632-.5480042.4183655-.8157196.1290894-1.2255859.2130127-.317215-.180275.2887573 2.1567993-3.3317871 31.3528671-49.5151329 36.5072556-56.2567749 35.8967285-56.665287-.1326904-.0891113-.3291016-.0556641-2.3190918 2.7324219-10.2386322 14.4672509-29.9707146 46.1868478-35.8847046 57.1081582-1.0962753-.8834991-4.8607597 3.1145401-8.102232-.1845703-.8583374-.8896484-1.52771-1.8493652-1.9286499-2.161377 2.7091274-2.5053024 29.2411404-40.2807236 40.5125122-61.6774902 1.7058086-3.2844257 1.5319805-3.5585956 1.256834-3.7211933z"/><path d="m86.8983231 19.7143993c-.328125-.0388184-.8486328-.1506348-1.3178711-.5913086-.4718018-.394043-.7165527-.9912109-1.0310059-1.0327148-.3028564-.0632324-.7366943.7390137-.4141846 1.8012695.506752 1.7355461 2.5341034 2.6661377 4.2119141 1.8652344.4046631-.1984863.6203613-.435791.7230225-.6289063.1989746-.3967285-.0095215-.6228027-.2120361-.862793-.6537934-.777008-.945099-.4335555-1.9598389-.5507812z"/><path d="m21.7514744 53.451458c-1.6090641 1.4897346-1.7477531 3.5627594-.8078613 4.8261719 1.7977448 2.4370041 5.9189415 1.998497 6.9856567-1.439209.8826675 2.1972885 3.816555 2.1442375 4.3868999.1166992.6170006-1.9633255-.9346924-5.0812645-2.4921856-5.8352051-.5618896-.2570801-.7684326-.0322266-.9770508.2033691-.7617416.8583107.2576828 1.2574997 1.1278076 3.7370605.0965919.282299.4140587 1.2849846.2503662 1.532959-.0423584.0705566-.2689209.1237793-.4741211.0935059-.5879879-.020874-1.2042713-.8286858-1.6166382-1.1193848-.003418-.2172852-.0194702-.4143066-.0480347-.5686035-.2052002-.8869629-.5541992-.8452148-.8531494-.809082-.8438835.0960884-.6599808.8479156-1.3275146 2.0393066-.2939453.517334-.8331299 1.1796875-1.6630859 1.2626953-.470459.0681152-1.2226563-.0847168-1.604248-.5092773-.3999023-.3535156-.4661865-1.2307129-.0986328-2.0024414.3543224-.8064957 1.0704422-1.4595299 1.6524048-2.0493164.6546021-.2749023 1.097168-.5859375 1.3887329-.8395996.7889404-.7368164.5830078-1.0212402.3979492-1.2592773-.5195293-.6758537-1.178627.0071602-3.0848389.309082-.975935.1539803-3.3207836.1779556-3.3723145-.8149414.0148182-1.1302795 2.3469734-2.4323196 3.5339355-2.7006836 1.0760498-.2658691 2.1046143-.0004883 2.7661133.3779297.6679688.3706055.9797363.8144531 1.1365967.7421875.0078735-.0024414.0130005-.0136719.0196533-.0205078-.0187988.1962891.0620728.2978516.1618652.3876953.6450253.5810204 1.8264046-.8907738 5.274168-3.7785645 15.8958511-13.6264305 29.3724403-14.8283577 29.1824951-15.805418-.0439453-.2875977-4.4101563.1496582-9.5614014 1.8181152-8.2545547 2.6640491-15.5089989 7.0891399-21.0526104 12.406004-.9461212.8877411-3.5677986 3.5537338-3.9644775 4.7910156-.0078735-.2541504-.1595459-.7180176-.6219482-1.2348633-1.0743237-1.2438889-3.2800064-1.8316917-5.8041992-.7473145-1.6168995.7210503-3.1880322 1.8171501-3.3312988 3.5891113-.0991497 1.0058479.3371449 1.9066734 1.0875244 2.4682617.8406564.5869485 1.7715131.9071809 3.4034425.8325197z"/><path d="m82.3181229 85.8301239c1.6652145.5095139 3.6070251-.7060013 4.0935059-2.7263184 1.0265121 1.8360291 3.3326263 2.1625824 4.6730957.4685059 1.4399185-1.8065109.741951-4.6310883-2.1573486-6.0158691-.7593994-.3327637-1.2735596-.4160156-1.6281738-.4406738-.7067871-.0336914-.8190918.2380371-.9273682.5373535-.468895 1.2965317 2.1769257 1.4519653 3.0114746 3.3408203.1704102.4213867.2503662.8469238-.0181885 1.3164063-.2785645.4487305-.6046143.6501465-1.2231445.4052734-.9143677-.3707657-1.3249054-1.467865-1.7843628-1.972168-.1958008-.7263184-.432373-1.1584473-.6211548-1.4365234-.4165039-.5808105-.6994629-.4973145-1.0004883-.3947754-1.3094482.4459457.2669296 2.7777405-.8602295 4.2497559-.2637939.3540039-.6905518.6533203-1.0230713.6035156-.3619385.015625-.9146729-.557373-1.0695801-1.2255859-.1662445-.6526184-.060936-1.4278564.0269165-2.0966797.6027222-.5649414.8562012-1.0310059 1.0076294-1.3510742.2993164-.7119141.0684814-.901123-.180542-1.0974121-.2528076-.1992188-.5048828-.3327637-1.0893555.0646973-.425087.2710266-1.2776794 1.0639572-1.9567871 1.1318359-.349968.0535431-.9194489-.0577927-1.0631104-.4189453-.1375275-.4163284.4995117-1.0737991.9112549-1.3383789 2.0487137-1.3095474 4.3179245-.4997177 4.4782715-.8129883.1665192-.2938843-1.3374557-1.5304337-3.6147461-1.3327637-1.2797165.1138611-2.5239105.6321335-3.3458252 1.6420898-1.1152802 1.3436279-.8161163 3.1754761.446167 3.984375 1.1229858.7141113 2.1873779.6628418 3.0039063.3857422-.7530441 2.1491241.3575668 4.080368 1.9112549 4.5297851z"/><path d="m117.4389725 114.582077c-.171875-.0153809-.2913818.0585938-.5670166.7436523-1.8435745 4.374733-6.9676056 6.4341278-14.8197021.8393555-4.1380844-2.8635101-7.4844894-3.5763245-11.4794922.4536133-2.6923676 2.7574463-5.3351364 7.7505951-9.9968262 10.6525879-3.4445724 2.1586151-7.6423035 2.7276001-11.2211914.0854492-.6942139-.5722656-1.3743896-1.2084961-2.0085449-1.9526367-1.2908936-1.4538574-2.4724121-3.1845703-3.9031982-4.8508301-3.5197296-4.0085678-7.043045-5.4512634-12.6009521-3.5771484-3.5886879 1.241951-8.310482 3.772438-11.5345459 5.7868652-6.7525177 4.235054-9.5094719 7.8548737-13.9249249 8.1452637-2.6179619.1989288-5.194025-.8911133-5.7873535-3.479248-.2431641-.9699707-.1328125-1.8679199.0919189-2.5322266.5004883-1.3566895 1.3876953-1.6992188 1.3027344-1.7976074-.0134277-.0288086-.2244873.0241699-.5753174.2404785-2.0482578 1.2444687-2.3303814 5.4306488.5533447 7.4631348 2.0174065 1.4526367 5.5432262 1.8832703 9.5220947-.2966309 3.7060146-2.0011902 6.4138927-5.0762024 15.1326885-9.2702637 1.890625-.8952637 3.8555908-1.8022461 5.8144531-2.4348145 4.7024879-1.4905243 7.3826675-.3777008 10.3825684 3.1357422 1.3106689 1.5639648 2.4667969 3.3068848 3.8583984 4.9182129.6789551.8127441 1.456543 1.5695801 2.2855225 2.2597656 4.4066315 3.3561859 9.6475983 2.7350922 13.8295898.1254883 5.1508789-3.2602539 7.6640625-8.1213379 10.4029541-11.0380859 2.985054-3.1534424 5.2258301-2.5532837 8.6517334-.2766113 10.2390671 7.0285645 16.6816025 1.6931839 16.9025879-2.3996582.029419-.8745117-.1677246-.9333496-.3115234-.9438477z"/><path d="m54.7581863 17.4070263c4.3379135 1.561697 5.424057 1.9983635 5.5164795 1.8261719.180294-.3335247-3.0173073-2.154417-5.1191406-2.9133301-3.2408447-1.1245127-3.4088135-.7873545-3.4841309-.5078135-.0935058.3361826-.0589599.5031748 3.086792 1.5949717z"/><path d="m61.3960037 16.3345165c.3048592-.1529598-1.0894699-3.2568197-2.5159912-5.2104502-2.0274658-2.6962891-2.3612061-2.5002441-2.5758057-2.3105469-.2657471.2302246-.3216553.3820801 1.6381836 2.9890137 2.7450867 3.7872057 3.2858315 4.616582 3.4536133 4.5319834z"/><path d="m64.5756912 13.8223085c.3195801-.0056152.5344238-2.5263672.5137939-3.6987305-.0375977-2.1398926-.2973633-2.1799316-.6169434-2.1743164s-.5778809.0549316-.5402832 2.1945801c.02063 1.1726075.3238526 3.6840821.6434327 3.6784668z"/><path d="m69.5553055 85.2412567c-.2590332-.1875-.5366211-.2456055-3.7757568 4.2336426-1.7747803 2.4543457-5.3737793 7.8735352-5.1147461 8.060791.2589111.1872559 4.277832-4.9282227 6.0527344-7.3825684 3.2390136-4.479248 3.0968017-4.7246093 2.8377685-4.9118652z"/><path d="m69.1461258 93.8311005c.949585-1.098877.7733154-1.2912598.5314941-1.5002441s-.4576416-.3552246-1.4072266.7434082c-.5203857.6020508-1.44104 2.0637207-1.1992188 2.2727051s1.5545656-.9138185 2.0749513-1.5158692z"/></g></g><g><g><g><path d="m76.2412643 55.4526596c.2729492.1662598.3605957.5129395-6.0437012 10.6552734-1.7545166 2.7785645-4.569458 7.1152344-6.9783936 10.7341309-2.4091797 3.6191406-4.4122314 6.5202637-4.5458984 6.4326172-.133667-.0874023 1.6265869-3.1459961 3.8575439-6.8752441 2.2310791-3.7294922 4.9329834-8.1298828 6.6856689-10.9055176 6.3964845-10.1298828 6.7518312-10.2075196 7.0247804-10.0412598z" fill="#fff"/></g></g></g></g></svg>