<svg id="Layer_1" enable-background="new 0 0 135 135" height="512" viewBox="0 0 135 135" width="512" xmlns="http://www.w3.org/2000/svg"><g id="Best_Blog"><g><g><g><path d="m44.8314934 96.5385056c2.0681-4.7160797 3.4008408-9.6865692 3.9482269-14.7249985 2.2218132 2.4597397 4.7313118 4.7139206 7.474926 6.7144165.3935928.2869873.8270073.5813675 1.3349991.609993.8512878.047966 1.5404015-.7082138 1.6289787-1.4625397.0885696-.7543106-.2554398-1.4897385-.5923004-2.1864929-2.6689377-5.5203476-5.3378868-11.0406952-8.0068283-16.5610352-1.0107231-2.0905533-1.8554039-5.8653526-4.2514267-6.6524239-1.4370995-.4720764-4.8393822-.0095749-5.7412033 1.180275-1.0364838 1.3675194-.1331139 4.0858116.106575 5.5519753.4982872 3.0479889 1.03619 6.0904083 1.5162621 9.1409149.9628334 6.1181564 1.8235626 12.2490082 2.5817909 18.3899155z" fill="#ffcb05"/></g></g><g><g><path d="m12.9192858 105.0341034c3.7737246-.9213028 7.3567057-2.6166153 10.4621744-4.9502487.990778 4.6666489 2.4609241 9.2313843 4.3798161 13.5991211 4.5760765-15.1183472 7.4069557-30.7002258 10.22826-46.2419434.6012268-3.3119659 1.2033348-6.7085571.6154594-10.0229149.6209259 3.5006752-6.0293083 6.4622917-8.5216389 6.7083092-2.5000286.2467728-2.7894249-.5145378-3.9047966 1.7927246-1.1246567 2.3264771-1.3817539 5.6640396-2.0713367 8.1706924-2.912281 10.5862351-6.6557445 20.9436646-11.1879377 30.9442597z" fill="#ffcb05"/></g></g><g><g><path d="m53.8029213 41.2901344c.7786217-1.5422478.9752579-3.315033.9605789-5.0426216-.0346413-4.0768623-1.1983337-8.1383877-3.3278885-11.6150246-1.1050873-1.8041286-2.5055161-3.4865322-4.3421402-4.5367279-1.0575447-.6047134-2.2274895-.982317-3.3948708-1.3305912-4.4633827-1.3315868-9.1688271-2.30159-13.7644596-1.5432587-4.5956306.7583332-9.0834389 3.5431652-10.7864952 7.8784256-1.5228233 3.8764629-.6379871 8.2678852.6978989 12.2126751 1.9283199 5.6942101 5.0257282 11.3622398 10.2306404 14.3707695 4.2391415 2.4502983 10.2983685 2.5406837 14.2521992-.5808105 1.4032249-1.1078262 2.3256454-2.689949 3.6090126-3.9279175 1.9990311-1.9283218 4.5694199-3.3176727 5.8655243-5.8849182z" fill="#ffcb05"/></g></g><g><path d="m130.1457214 112.1090469c-.1195068-1.3044434-.4063721-2.3530273-.723877-2.3527832-.7655792-.0005875-2.4790268 8.5979614-1.1159668 9.4865723-.9526443.5546875-3.1939774 2.0507813-6.52845 3.8059082-9.9655533 5.241127-18.7720184 5.9305954-30.2388916 6.7834396-8.8933105.636261-17.1944885.8010406-25.5615234-.0480957 5.7593536-2.9905548 5.9874954-9.8237305 4.3878174-9.7731857-.1599503-.4009552-.3581696-.7543106-.5762939-1.0637207 31.1488571 3.5258026 60.439415-8.0475311 59.6987381-9.8522949-.1210938-.2956543-.3510742-.5161133-3.2536697.4020996-20.77491 6.4701233-32.5335312 8.506691-57.1572266 8.6552734-3.2721634-3.0269089-9.1098099-.584816-9.8408165 4.9858398-.337719 2.6594849.7015305 5.3954086 1.0632324 5.3017502.3643875-.091156-.1493416-2.5471497.5429688-4.9872971 1.0663528-3.9548874 5.6056557-5.9818192 7.5668907-2.6057129.3700638.6852341.4499893 1.2094421.4755859 1.9140625-.8535233 2.6755905-2.6883545 5.1164398-5.5060997 6.726799-8.8607559-1.1359711-20.4930916-3.6039276-25.2421875-11.1476974-1.5125732-2.3930664-2.1850586-4.7612305-2.6188965-6.7536621-1.1308098-5.5064697-.7664223-10.7154617-1.6455078-10.7167969-.159668 0-.3120117.0546875-.4501953.8000488-.1271973.7470703-.2885742 2.1791992-.2543945 4.9748535.0970764 4.591568.8148918 8.941864 3.1594238 12.8244629 6.9653511 11.6099472 29.7110863 13.4135361 43.237545 13.0212326 3.9904785-.097168 8.0849609-.3718262 12.1296387-.744873 11.3344421-1.0772858 20.821701-2.1053619 30.5229492-7.9096603 2.0445175-1.213623 4.8385391-3.1282883 6.3335037-4.4987793.0900879.0161133.1826172.0197754.2753906.019043.6671143-.0014648 1.0814209-.0510254 1.3425293-3.4750977.0778809-.9426269.1025391-2.4675292-.0222168-3.7717285z"/><path d="m100.331749 77.0563126c.0640869-.1462402.1132813-.2897949-.1053467-.513916-.4161072-.4248886-1.26297-.6956177-1.8258057-.7487793-2.6005707-.4122543-5.7357025 1.3224564-8.2844238 2.3425293-2.6271133 1.0152283-4.3754959 1.3454514-7.2196045.0622559-5.3567352-2.3765793-8.7363129-6.7316971-15.8140869-2.6242676-1.0473633.6069336-1.9223633 1.213623-2.6569824 1.7131348-1.4567833 1.0112305-2.3867149 1.5808105-2.3239708 1.7314453.059082.1452637 1.1539307-.1650391 2.7729454-.9504395 3.6155472-1.7113647 6.1565323-3.346962 9.90625-1.8652344 3.4620667 1.3934174 6.7358322 4.8148499 10.8658447 5.1171875 3.2514725.2482986 5.9494705-1.4096146 8.7458496-2.6738281 4.6285019-2.1878205 5.5236969-.6382523 5.9393311-1.5900879z"/><path d="m83.767662 96.4422989c-3.3759003.0552979-7.0717545 1.232338-10.2573242 1.6296387-4.3262253.6001663-5.9633636-.519165-6.145874-.135498-.0620117.1188965.5046387.6208496 1.6326904 1.0668945 4.1785202 1.6861343 10.1568451-.1708984 14.8226318-.246582 5.2725067-.0892029 9.4882584 1.3711395 9.7467041.048584.0611572-.3132324.0709229-.6081543-1.1290283-1.0559082-1.826004-.6676408-5.3282394-1.3610383-8.6697998-1.307129z"/><path d="m114.9709091 24.0504494c.2932129.1340332.8637695-.4267578 1.501709-1.0908203.5758286-.6104279 2.8274765-2.9498234 3.0142822-3.7697754.0935059-.3723145-.0878906-.598877-.3028564-.8354492-.2148438-.2365723-.4161377-.4445801-.8188477-.3566895-.8204346.1970882-2.5354767 1.7951336-3.3018799 4.1291504-.3233642.9572754-.380249 1.7929687-.0924072 1.923584z"/><path d="m124.2399521 24.2350197c1.7106934-1.6650391 1.3850098-2.0712891.939209-2.5292969-.4459229-.4580078-.8431396-.7944336-2.5539551.8706055-.9372559.9125977-2.5876465 3.2419434-2.1418457 3.6999512.4459228.4582519 2.8190918-1.1286622 3.7565918-2.0412598z"/><path d="m122.547081 31.4100685c.0681152.635498 2.9572754.847168 4.277832.7058105 2.4100418-.2583008 2.4052811-.7788086 2.3371658-1.4145508-.0681152-.635498-.1737061-1.1452637-2.5837479-.887207-1.3205565.1416016-4.0993651.9604493-4.0312499 1.5959473z"/><path d="m39.085537 71.4503555c.9889717 11.8522568 2.6421623 20.1963501 3.2053223 23.7041016.0259132.233223.1702347.641716.3326416.8647461.7882385 1.2213058 2.6928902 1.2437134 3.4997559-.0012207.1589203-.2543869.5057831-.9820633.559082-1.098877 2.3383446-5.0440521 2.6054688-8.5049896 2.9246826-10.0891113.2918472.2662811 6.2711792 5.0250092 5.9351807 4.7575684.1001587.0220947 1.5915031 1.3895416 3.0477295-.1508789.4787712-.4975815.7128067-1.1591568.5975342-1.9311523-.1328201-.6285248-9.7550583-22.1829376-12.2678223-26.6208534 2.4038887-.5322533 4.3165894-1.9916229 5.4174805-3.9606934.7431641.2316895 1.9691162.5061035 3.6131592.6333008 7.9178543.624527 12.3063622-3.129509 16.666378-4.7683105 6.2007828-2.4342804 9.5620956 1.3926239 17.3081055 2.2390137 6.7281265.8624382 14.485817-.2311096 20.7585449-1.8649902 1.1940918-.3208008 1.9074707-.5627441 2.3356934-.7585449 1.3587189 28.2550392 1.3996353 60.0703926 3.2282715 60.0004921.6574707-.0297852 1.0703125-.6682129.138916-31.0688477-.2637939-8.3303223-.8974609-21.4453163-1.9057617-32.4418983-.9066315-10.3933258-2.2341995-19.8636589-2.5495605-19.8305664-.3300171.0348186.4726257 10.9294395 1.0384521 22.3156738-.4527588-.0351563-1.2313232.0056152-2.5974121.1767578-9.2258987 1.2392654-16.3654327 2.5554543-25.2467041.1484375-1.845459-.5209961-3.8735352-1.2746582-6.1811523-1.6325684-5.3102646-.8215714-8.4133759 1.6803093-12.9003906 3.9941406-4.4761887 2.4201851-8.9798813 2.8110962-13.5069542 2.4819336 1.0583267-2.1952858.9820824-4.5187798.3306885-5.9379883 3.681057 2.2247047 10.0136375.2546768 11.5859337-5.236084 1.359581-4.6567459-1.7271729-9.0317459-5.5866661-9.9675293 3.0119438-.9009056 5.3219414-3.7020607 5.251461-7.3574219 3.3135223.5440102 21.5773773.5863228 36.2871094.7260742 6.5029297.0488281 11.7854004.0673828 11.8039551-.2553711.0629807-1.0921707-39.9466095-3.3789749-48.2163048-1.7724609-.7601013-4.469511-4.7258949-7.4330444-8.8857422-7.4638672-1.1960449-.0200195-1.9036865.2189941-1.8935547.3625488.0070801.1738281.7148438.2468262 1.7752686.5305176 7.7657852 1.9748859 8.8953362 10.1836472 3.7352295 13.0268555-1.0900497.5875931-1.9057579.682354-2.7851563.8476563-.5565147-4.2772408-2.3156891-8.096468-5.4108887-11.4213867.6008301-.3544922 1.378418-.9528809 2.1279297-2.0539551 3.789505-5.6293993-.6273842-13.0501404-7.0882568-13.1520996-1.8898773-.0731149-3.9237595.47365-5.3858643 1.583252-1.7868808-6.138478-9.0006507-8.1648547-13.2391379-5.2004394-2.6381569 1.7210658-3.7344894 4.5778103-3.5413818 6.083252-.005127-.0026855-.0092773-.0058594-.0145264-.0087891-3.1020947-1.6358337-6.6951942-1.2519236-9.4124746.7351074-3.8122559 2.6255417-4.6333418 8.0763073-2.310791 11.4384766-5.0282311.1732254-8.3077269 8.1205082-6.2954102 13.2822266 1.0939875 2.9120789 3.6632318 5.2674484 6.7253418 5.4521484-3.7393093 2.6273956-4.795507 7.1974754-3.3947754 10.8513184 1.6685667 4.5977898 7.1392574 6.769207 11.2700186 4.7712402.1003304 2.6754303 2.3325977 5.7179565 6.744873 6.7875977-3.1616611 7.4172249-15.1501083 39.9400902-14.9271231 39.3364296-.3621426.9885483-.0497389 1.9107971.5430908 2.465332.535491.5111237 1.2918901.7252197 2.0183105.5637207 1.6916494-.3237305 3.3461905-.8310547 4.9204092-1.5021973 1.7840157-.7608643 2.8519859-1.4606705 3.1760254-1.637207 2.5796738 10.234375 2.4868908 9.9772186 2.706543 10.3400879.9286442 1.7200928 3.5362358 1.5469971 4.2612305-.1723633.1411972-.3022079 1.5840969-4.3834305 2.4616699-7.2568359 3.6325322-11.8392261 6.0043507-23.5824283 7.211794-33.8854984zm12.1986084-16.1171913c-1.8750534 3.4248466-6.9859734 4.9668694-10.7160645 1.5339355-.7386475-.6923828-1.1357422-1.2849121-1.4365234-1.7004395 4.3782959-.4453773 8.8492813-2.5583916 12.1375732-6.0732422.2271729.3432617.5688477.7573242 1.0714111 1.1523438-.0721855.6016312.2348786 2.8377839-1.0563964 5.0874024zm4.7908935-19.7905273c.5349884.1328354 1.0808334.1531868 1.6190186.1015625.3096924.1589355.8123779.3830566 1.4074707.7578125 1.0061035.6132813 2.2508545 1.7304688 3.017334 3.2797852 1.9901848 3.9516563-.5876198 8.9339294-5.2285156 9.4980469-1.946537.3070908-3.2986145-.2491798-4.5393066-1.357666.2147217-.2749023.4318848-.5463867.6341553-.8383789 2.208618-3.1455079 3.3215331-7.2832032 3.0898436-11.4411622zm-26.5172138 15.697998c-7.3952389-3.4989929-11.6863575-10.791172-11.2854004-19.7692871.2764454-4.3220577 1.1441402-5.8963337.5605469-6.1154785-.1495361-.0561523-.3103027-.0581055-.7128906.6750488-.15271.3015137-.3591309.7387695-.5775146 1.3491211-.0090332-.0407715-.0155029-.0776367-.0292969-.1264648 2.3641777-7.8490944 10.9646454-12.5616932 20.7735615-9.9443359 8.0549164 2.132267 14.8619194 8.8776226 15.5947266 17.3864746 1.3053816 13.4167442-12.6366006 22.1134605-24.3237325 16.5449218zm-12.3361817-22.8408203c.0505371-.2421875.1142578-.5026855.1881104-.7756348.0128174.0100098.0269775.0224609.0384521.0297852-.0754394.2265625-.151123.4724121-.2265625.7458496zm28.1989766-19.3461914c4.5827599.6542778 8.0034866 5.6874199 5.4268799 10.3913574-.5653076 1.0112305-1.1453857 1.5703125-1.5303955 1.9746094-2.8505859-2.6435547-6.3078613-4.5065918-9.8619385-5.4853516 1.768158-3.0001783.9007187-6.1945791.8968506-6.2949219 1.6503639-.5619583 3.255886-.8793296 5.0686035-.5856933zm-17.6452656-3.8381348c3.0931339-1.6696925 7.0018253-.4616356 9.0466328 2.1848145 1.8886833 2.4600363 1.816433 5.2602911 1.0073242 8.1477051-3.5620117-.7099609-7.1334248-.5336914-10.211916.435791.2578163-1.1348467-.8672333-4.1226864-3.9394531-5.9289551.2745819-.5052996 1.1176052-3.3311253 4.0974121-4.8393555zm-3.5540772 7.9782715c.9716797.892334 1.4387207 1.6806641 1.7828369 2.1931152.3135986.489502.5006104.7680664.6680908.9128418-4.7383881 1.743082-8.2779789 5.6304455-9.5233154 10.0168457-.9739227-2.114109-2.4795017-3.9437695-4.770751-4.2333984-3.0081396-8.8412542 6.2287836-13.9554748 11.8431387-8.8894043zm-16.7990713 15.5290528c.9139462-3.414011 3.5758858-6.3449383 6.5194092-4.6376953 1.2402639.7043667 2.1194715 1.9287415 3.0061026 3.0273438-.3164082 1.4601822-.3101349 2.8059158-.19104 3.4753418-.3988724 2.4426422-.3371696 4.7404556.0559082 7.0812988-.7001591.0987778-2.0869398 1.3955078-4.6654043.9960938-3.4629527-.5777131-6.1732622-4.7620965-4.7249757-9.9423829zm7.2646485 25.7854003c-5.6073771-1.8381577-6.6840267-10.1374779-.1209717-13.9870605.8640699-.2679787 1.2813463-.5731583 1.7459707-.8742676.3665771-.1614304.8614578-.3563919.4970703-.4411621.1016846-.1035156.1761475-.1970215.2476807-.2893066.9131584 4.0140991 2.8342781 7.5090714 5.8425293 10.4147949-.3822803.9310646-.6164379 2.4691544-2.2651367 3.9882813-1.6655922 1.5312042-3.8083382 1.9027671-5.9471426 1.1887206zm7.5373525.2233887c1.0936069-1.1897163 1.8603039-2.711628 1.8951416-4.3081055 3.7422295 3.0952568 8.4152164 4.9211235 13.3520527 4.8391113.1095581.8828354.611393 1.8294296 1.1391602 2.5439453-1.8244209 3.3854904-5.446701 4.114727-9.276125 3.6489258-4.9488067-.6028213-8.1034412-3.7384033-7.1102295-6.7238769zm5.1134033 56.8923378c.0142822.0874023-.2102051.0830078-.2102051.0249023-1.0605469-3.9941406-2.199707-8.2832031-3.3747559-12.708252-2.4549236 1.7186279-2.8293171 1.9295502-2.7287598 1.8649902-.1332245.0741882-1.101284.6991577-2.5820313 1.357666-1.4301758.6362305-2.9387197 1.1262207-4.484374 1.4501953-.1824951.0356445-.175415.0180664-.2766113-.0429688-.1324711-.1129608-.114337-.2411118-.0690918-.3803711.036499-.1048431.3415527-.9810638.3050537-.8762207 2.3010015-6.6340408 11.1855631-32.2095032 13.1832266-39.0285683 2.5461426.5393066 5.5632343.4448242 8.0798359-.6391602 1.7662163-.7620926 3.4254417-2.3455238 3.8967285-4.2524414 1.7548256 1.9272919 4.1405563 2.847023 6.5742188 2.6760254 1.5027847 4.8472328 9.7591019 23.3173409 11.161499 26.5896034l-.0003662.0007324-.0014648.0004883c-6.6906242-5.3302536 6.9359818 5.5147247-9.12854-7.2700195-.232975 3.4130554-.1767502 3.466301-.5618896 5.9697266-.7876282 4.7311859-2.6348991 8.3567429-2.6975098 8.5217285-.0161133.0263672-.0108643.0285645-.0603027.0410156-.0463867-.0012207-.0827637-.0117188-.0820313-.0200195-.0085449.0024414-.0023193-.0100098-.0124512-.0144043.0245361-.3435287-2.0832176-8.1109619-4.6777344-28.5437012.0200195-.2529297.0410156-.5124512.0583496-.7473145.3695068-5.9558144.0183105-6.2146034-.2756348-6.2353554-.1962891-.0141602-.3552246.0598145-.6008301 1.2160645-.1775627-.6697311-.1991463.3052063-.2012939 1.0822754-1.4737014 8.7261394-3.1079635 26.7389033-11.2330341 49.963383z"/></g></g></g></svg>