<svg id="Layer_1" enable-background="new 0 0 135 135" height="512" viewBox="0 0 135 135" width="512" xmlns="http://www.w3.org/2000/svg"><g id="_Likes"><g><g><g><g><path d="m102.0785828 84.0663071c0 .0698242-.0100098.1298828-.0299683.1899414-.0300293.2700195-.1000366.5102539-.2000122.7299805-.1099854.2700195-.2600098.5102539-.4400024.7299805-.2000122.2602539-.4400024.5-.710022.7099609-.6499634.0400391-1.1300049.1098633-1.5.1303711-.4099731.1699219-1.1099854.409668-2.0499878.7695313-1.5899658.6000977-3.8399658 1.6401367-6.3800049 3.300293-2.5299683 1.6401367-5.289978 4.0400391-7.6099854 7.25-.3200073.4599609-.6300049.9399414-.9299927 1.4301758-.3699951.199707-.75.3896484-1.1199951.5795898-.3500366.1704102-.710022.3500977-1.0599976.5302734-5.0100098 2.4799805-10.1100464 4.7397461-15.3500366 6.7900391-4.2000084 1.6396484-7.3499718 4.1499023-10.7399864 4.3696289-.75.0600586-1.5100098 0-2.289978-.2197266-1.4700317-.3798828-3.0300293-1.2700195-4.7700195-2.8901367-.960022-.8901367-1.8499756-1.8300781-2.6900024-2.8198242-6.8599854-8.1298828-9.6199951-19.25-12.039978-29.7802734-.6400146-2.7797852-1.2800293-5.5595703-1.9200439-8.3398438-.1399536-.6000977-.2799683-1.2402344-.0899658-1.8198242.0100098-.0302734.0200195-.050293.0299683-.0800781.1200562-.340332.3300171-.6201172.5900269-.8798828.2199707-.2402344.4799805-.4604492.7199707-.6704102 3.6400146-3.1899376 5.25-7.3496056 5.9000244-11.8198204.5200195-3.5.4400024-7.1801758.2800293-10.7299805 0-.0097656 0-.0097656 0-.0200195-.0599976-1.5200195-.1400146-3.0200195-.2000122-4.4702148-.0700073-1.9199219-.0200195-4.0898438 1.3999634-5.3398438 1.7000122-1.5 4.4900513-.7900391 6.3500366.6103516 4.9899902 3.7597656 5.8699951 10.7597656 6.3300171 16.9399414.25-.1401367.4899902-.2700195.7399902-.4101563.5899658-.3198242 1.1900024-.6499023 1.789978-.9702148 3.5700073-1.9599609 7.1400146-3.909668 10.7200279-5.8696289 3.789978-2.0703125 6.7399902-5.1000977 11.0799561-6.2700195 2.8800049-.7802734 6.1799927-.590332 8.5599976 1.2197266.8600464.6601563 1.5400391 1.5600586 1.9800415 2.5600586.7799683 1.75.7999878 3.800293-.2800293 5.3701172.4700317-.4902344 1.039978-.8100586 1.6600342-.9799805.6599731-.1899414 1.3799438-.2099609 2.0999756-.0800781 1.3499756.2197266 2.6699829.9799805 3.5 2.0800781.6799927.8999023 1.0999756 1.9296875 1.3200073 3.0297852.3399658 1.6000977.2699585 3.340332 0 4.9702148-.1400146.8100586-.3099976 1.6098633-.5300293 2.3999023-.2799683 1-.6199951 1.9799805-1.0299683 2.9301758-.0900269.2597656-.2000122.5097656-.3200073.7597656-.3099976.6801758-.6600342 1.3500977-1.039978 2 .1799927-.1201172.3599854-.2001953.539978-.2597656 0 0 0 .0097656.0100098 0 1.4400024-.4301758 3.1099854.909668 3.9299927 2.3198204 2.3800049 4.1000977 2.0700073 9.6098633-.7600098 13.4101563.4199829-.1801758.8699951-.2299805 1.3099976-.1801758.0800171 0 .1599731.0097656.2299805.0302734.460022.0795898.9100342.25 1.3099976.5.0100098.0097656.0200195.0097656.0400391.0195313.1400146.090332.2799683.1801758.4099731.2900391.0499878.0400391.1000366.0800781.1400146.1201172.8499756.7299805 1.4400024 1.7099609 2.0100098 2.6699219.289978.5.5899658 1.0102539.8099976 1.550293 0 .0097656.0100098.0200195.0100098.0297852.1999508.5102535.3200069 1.0302731.2799679 1.5800778z" fill="#ffcb05"/></g></g><g><g fill="#fff"><path d="m101.4186096 115.8563461c.3599854.5297852.5999756.9897461-2.1199951 2.8798828-1.4899902 1.0400391-4.9899902 2.8398438-5.3500366 2.3203125-.2399902-.3500977.9400024-1.6201172 2.2000122-2.7402344-.4299927-.7802734-.960022-2.25-1.9699707-4.9101563-.6000366-1.5898438-1.5500488-4.0996094-2.3500366-6.2099609-.0899658-.25-.1900024-.5-.2799683-.7397461-.5 2.0400391-2.0900269 6.2797852-2.710022 6.1298828-.6199951-.1601563-.039978-4.6499023.4700317-6.6899414.9199829-3.7099609 1.4399414-3.6601563 2.0599976-3.5102539.4799805.1201172.8899536.2700195.5999756 2.0800781.4000244.550293.8599854 1.2299805 1.3300171 2 1.2199707 1.9799805 2.4199829 4.4702148 3.039978 6.1201172.789978 2.0800781 1.1799927 3.4897461 1.3599854 4.449707.1000366-.0698242.1900024-.1396484.2800293-.199707 2.7199707-1.8901366 3.0700073-1.4999999 3.4400024-.9799804z"/><path d="m111.2085876 100.6961899c.3400269.5898438.4500122.9599609-3.460022 3.550293-.1399536.0996094-.2999878.199707-.4599609.3100586.1499634.2895508.2799683.5498047.3999634.7998047 2.3800049 4.9599609 1.960022 5.2797852 1.3800049 5.5600586-.5799561.2797852-1.0899658.3999023-3.4699707-4.5600586-.0800171-.1699219-.1699829-.3500977-.2600098-.5400391-.6099854.3798828-1.2299805.7700195-1.8200073 1.1401367-1.4400024.8999023-2.5899658 1.6899414-2.8300171 1.4697266-.2399902-.2099609.5500488-1.4599609 1.8000488-2.7397461.6099854-.6298828 1.3099976-1.2700195 2-1.8500977-1.1700439-2.8598633-2.3600464-6.3198242-1.9299927-6.5297852.4099731-.2001953 2.1799927 2.5996094 3.6399536 5.2099609.0900269-.0703125.1600342-.1303711.2399902-.1801758 4.0500489-2.6801757 4.4800416-2.1699218 4.7700196-1.6401366z"/><path d="m122.6385803 104.5165024c-.7000122-5.7802734-3.5899658-11.3500977-8.1900024-14.9101563-3.1599731-2.4399414-7.1199951-3.8598633-11.0799561-3.9501953-.460022-.0200195-.9200439-.0097656-1.3800049.0200195-.2000122.0102539-.3900146.0200195-.5800171.0400391-1.1699829.1000977-2.3200073.3300781-3.4500122.6801758l1.3800049-.050293.289978-.0097656c-.3499756.0898438-.6999512.1801758-1.039978.2797852-7.210022 2.0703125-13.9099731 6.8901367-17.4799805 13.2700195-.3300171.550293-.6199951 1.1303711-.8800049 1.7099609-.4700317 1.0200195-.8500366 2.0800781-1.1400146 3.1601563-.3400269 1.2099609-.5599976 2.4501953-.6599731 3.7299805-.6400146 8.25 4.2599487 16.5898438 11.6599731 20.2900467 7.4099731 3.6899414 16.8599854 2.6601563 23.4500122-2.3598709 6.5899659-5.010254 10.0999756-13.6899415 9.0999756-21.8999024zm-1.6900024 8.4096679c-.3299561 1.3100586-.7799683 2.6499023-1.3800049 3.9599609-.5799561 1.3300781-1.3200073 2.6303711-2.2099609 3.8803711-1.9299927 2.7597656-4.7999878 5.4799805-8.6100464 7.1699219-3.7799683 1.689949-8.4099731 2.439949-12.9499512 1.6098709-2.2600098-.4101563-4.4899902-1.2001953-6.5200195-2.3798904-2.0100098-1.2001953-3.8200073-2.7700195-5.3300171-4.590332-3.0100098-3.6499023-4.75-8.3095703-4.75-12.7998047-.0199585-1.9101563.2900391-3.7597656.8099976-5.4902344.3400269-1.1298828.7700195-2.199707 1.2700195-3.2197266.2999878-.6098633.6199951-1.2001953.9500122-1.7597656.2999878-.4902344.6099854-.9702148.9299927-1.4301758 2.3200073-3.2099609 5.0800171-5.6098633 7.6099854-7.25 2.5400391-1.6601563 4.7900391-2.7001953 6.3800049-3.300293.9400024-.3598633 1.6400146-.5996094 2.0499878-.7695313.3699951-.0205078.8500366-.090332 1.5-.1303711.3400269-.0200195.7300415-.0400391 1.1700439-.0400391.4299927 0 .9099731.0102539 1.4400024.050293.4499512.0297852.9499512.0698242 1.4799805.1396484 1.5899658.2202148 3.5499878.6904297 5.7700195 1.7700195 2.1999512 1.0703125 4.6199951 2.840332 6.7399902 5.6401367 2.0799561 2.7900391 3.8800049 6.6499023 4.2799683 11.3798828.2100219 2.3603518.040039 4.9199221-.6300049 7.5600588z"/></g></g></g><g><g><g><path d="m42.2845268 106.3554993c.0761719.3100586.0566406.5820313-3.8334961 1.5375977-2.1313477.5234375-6.7678204 1.3955078-6.8439922 1.0854492-.0761719-.3105469 4.4365215-1.6860352 6.5678692-2.2094727 3.8901367-.9555664 4.0332031-.7241211 4.1096191-.4135742z" fill="#fff"/></g></g></g><g><g><g><path d="m73.6797943 96.5561829c.1096191.2998047.0656738.5917969-6.2885742 2.9135742-3.4816933 1.2719727-11.0427284 3.7583008-11.1523476 3.4580078-.1098633-.300293 7.2734375-3.2734375 10.7553749-4.5454102 6.3542481-2.321289 6.5759278-2.1264648 6.6855469-1.8261718z" fill="#fff"/></g></g></g><g><path d="m40.5936012 21.0067406c.5500488-.3256836-2.4067383-6.3349619-3.9921875-9.012208-2.8935547-4.8857417-3.3999023-4.7236323-3.9499512-4.3979487s-.9353027.6918941 1.958252 5.5776362c1.5854492 2.6767578 5.4338379 8.1582041 5.9838867 7.8325205z"/><path d="m46.1807594 16.5760765c.3205566.0351563.7658691-1.4091806 1.2680664-3.1679697 2.6428146-9.4134855 2.6321983-10.1201267 1.6962891-10.4238281-.3041992-.0986328-.5866699-.1650391-.9897461.4091797-.392334.5761719-.9333496 1.7919922-1.5551758 4.2983398-.3417969 1.3725581-.6787109 3.5795894-.7668457 5.4516597-.0959472 1.8730473.0327149 3.3984389.3474121 3.4326186z"/><path d="m60.570652 15.6585951c1.4748535-1.5288086 1.8786621-2.5888672 1.9885254-3.140625.0864258-.5751953-.1625977-.7236328-.4433594-.8759766-.9279556-.5035162-1.180191.3054466-3.1945801 2.3925781-2.9076538 3.024045-5.0030479 3.8641195-4.8503418 4.3540049.1591416.5384293 3.9827805-.0997105 6.4997559-2.7299814z"/><path d="m103.3785706 84.8963852c0-2.6093216-1.4399872-5.9239807-3.9675903-7.2084961 1.7067871-2.2549973 2.8025513-4.9310608 2.8393555-7.793457.1564178-4.6074448-3.3826141-9.239727-7.590332-10.4008751 1.6680984-2.0356827 2.7102051-4.5209122 2.6870117-7.1235352.0417175-4.0018768-3.3028946-7.978157-6.8813477-8.4790039-1.859375-.3203125-2.9157715.3549805-2.8579102.4379883.0383301.2109375 1.1164551-.1044922 2.6464844.4379883 2.9179459.8956566 5.4099579 4.3970337 5.1738281 7.5620117-.1449661 2.7463303-1.6641388 5.1597519-3.7268677 6.9624023-.1973877.0288086-.3768921.0595703-.5333862.1005859-.6040039.2011719-.9111328.3457031-.8886719.421875.0170898.0976563.2833862.0668945.7232056.0478516-5.7987289 4.442997-14.796196 3.5741959-14.6409302 5.2329063.0292969.3154297.1245117.6054688 2.0302734.6367188 5.478096.025238 11.7281418-1.4397278 15.5540161-5.4321251 1.8978882.6308594 4.1692505 2.3803711 5.449646 5.020504 2.0142441 4.0588531.6470871 8.5097198-2.4241943 11.8164063-.0005493 0-.0020142 0-.0025635 0-.0454865.018219-.1042328.0352554-.0700073.0703125.0002441.0004883.0010376.0004883.0012817.0009766-5.4531708 5.7899933-13.2963867 5.9180679-18.9205322 6.7504883-2.3510742.3212891-2.4411621.6044922-2.4262695.9267578.0146484.3164063.1159668.6118164 2.5083008.7080078 7.7680664.2217636 16.0167923-1.4163055 20.9476318-7.4121094.0033569.0024414.0062256.003418.0095825.0058594 2.1042099 1.4286575 3.164444 4.3603668 3.0300293 6.7797852-.7446442 0-4.325264.7247314-4.0900269 1.4301758.0200195.0698242.0599976.1396484.1799927.1796875-7.6441345 1.8551865-15.4163284 7.5700226-18.8999634 15.5102539l-1.8800049.9399414c-13.8840141 6.8058548-20.377758 8.0004501-22.9199181 9.2998047-1.6058502-2.7264481-9.4613495-12.0301285-15.8653564-25.9272461-5.1767082-11.1059113-7.1736202-19.7316742-8.1610718-22.8808556 8.2433891-5.8433151 9.0172729-17.6225548 5.8341675-28.2329102-1.8657532-5.6049671 3.8387337-9.7086697 7.9616699-7.8818359l.5236816.2133789c1.1142807.6894016.7441216.4314995 2.296875 1.7524414.2861328.2509766.4753418.5283203.7172852.7802734 3.3080292 4.2594223 4.7516708 13.2130699 4.5493164 18.9482422-.1383209 2.8393402-.491333 3.7331314.0192871 3.9213867.1499023.0551758.302002.078125.590332-.387207.4319839-.7635422.3922424-.7484436.786377-2.0961914.3077393-1.6942177.5625877-3.0842476.4567261-6.0102539.3871155-.0817375 2.9852409.5794067 7.8858032-2.2553711 3.6641502-2.1055412 7.293026-5.4166946 10.2065392-6.8500977 2.9932404-1.4236946 5.7772293-2.0438576 8.8349609-1.6479492 2.558609.5710678 4.3835831 1.7661705 5.1359863 4.300293.6398926 2.3496094-.1860352 4.6855469-1.260498 6.3208008-3.7243347 5.7361679-13.3639603 5.7381325-13.067627 7.2265625.0603027.3032227.2180176.605957 3.2429199.2080078 3.0279922-.4491692 5.2116623-1.2030182 6.9660645-2.0927734 6.7470627-3.5222244 8.2151947-10.6232872 5.0134277-14.918457-1.4484024-2.1264305-4.8963089-3.8350906-9.1472168-3.2407227-2.3120117.2563477-4.5471191 1.065918-6.6000977 2.1396484-5.3820648 2.9279594-10.0504112 9.5194435-17.2331505 10.3417969-.2428246-4.869957-1.5951118-11.4546928-4.576416-15.340332-1.0299683-1.138298-.1430054-.3482208-2.4760742-2.3442383-6.8237343-4.9954891-15.6145058 1.8875713-12.8186035 9.5322266 1.4035072 4.3019142 2.4334259 9.3334503 1.9555664 13.7983398-.410717 4.7399368-2.4069481 9.7688103-6.052124 13.0751953-.2352352-.5912323-.2927437-.3886261-.2628174.2368164-1.6205444 1.411129-2.850708 1.9560509-2.7692871 2.1049767.0025024.0058594.0284424.0004883.0378418.003418-4.6620712 1.9206467-12.7777519 6.2832108-19.5524902 11.2192383-3.2155771 2.4052963-4.1676054 7.1476898-1.7497559 10.9204102 7.6439123 12.9714279 17.7767792 32.8362808 20.3381348 35.1210938 2.3571758 2.2196579 5.8402596 2.9003067 8.6906738 1.7744141 1.5630188-.6255417 12.3229828-6.6054001 14.3806152-7.7978516 4.359375-2.5263672 4.4106445-2.8798828 4.2683105-3.1660156-.0009766-.0019531-.0022583-.003418-.0032349-.0053711.7896729.6611328.9951782.5776367 1.1668091.4291992.0740356-.0639648.131897-.1420898.1408691-.2724609 7.1487732-.8208542 16.8639641-4.9757919 23.3355064-8.1396484-1.6956329 6.6437988.233078 13.5051498 4.2799683 18.5698242 11.5163727 14.449379 35.9556503 9.4323349 40.7200317-10.2998047 3.5425036-14.0254596-5.7351529-28.5800784-19.8000485-28.5800784zm-69.2639733 37.1918945c-1.263916.4814453-2.8183594.5063477-4.2924805-.0683594-1.8944721-.7393951-2.7624626-1.9591446-3.677002-3.5415039-6.1219348-10.2064209-11.6382579-20.9117202-18.6413573-32.2080078-2.0373116-3.068306-1.2995009-6.7131042 1.1157227-8.6386719 12.7504597-9.8880386 25.3424759-14.8717384 20.2661743-13.1635742.3259888-.1748047.6838379-.3823242 1.0766602-.6386681 1.271946 12.1492729 7.759613 29.5701866 18.1488647 43.2070274 1.3226318 1.7713776 3.5761833 4.5329285 5.2543945 6.0092773-1.3473053-.3702925-18.0930786 8.6156618-19.2509766 9.0424806zm83.2440148-1.3217773c-1.9299927 2.7597656-4.7999878 5.4799805-8.6100464 7.1699219-17.4297028 7.7924423-33.3518295-8.3017578-28.7399902-23.6503906 2.3568954-7.8317642 9.4183121-14.0455704 17.1400146-16.9599609.9400024-.3598633 1.6400146-.5996094 2.0499878-.7695313.6495438-.0359955 2.6124802-.3727188 5.5900269.0195313 15.1985931 2.105049 21.9417495 21.0271911 12.5700073 34.1904296z"/><path d="m97.9786072 116.8363266c-.0900269.0600586-.1799927.1298828-.2800293.199707-.6356049-3.3898926-2.980484-8.7874832-5.7299805-12.5698242.289978-1.8100586-.1199951-1.9599609-.5999756-2.0800781-.6200562-.1499023-1.1400146-.199707-2.0599976 3.5102539-.5100098 2.0400391-1.0900269 6.5297852-.4700317 6.6899414.6199951.1499023 2.210022-4.0898438 2.710022-6.1298828.3426514.9131165 4.0974121 10.9478912 4.5999756 11.8598633-1.2600098 1.1201172-2.4400024 2.3901367-2.2000122 2.7402344.3600464.5195313 3.8600464-1.2802734 5.3500366-2.3203125 2.7199707-1.8901367 2.4799805-2.3500977 2.1199951-2.8798828-.3699951-.5200196-.7200317-.9101563-3.4400024.9799804z"/><path d="m106.4385681 102.3363266c-.0799561.0498047-.1499634.1098633-.2399902.1801758-1.4599609-2.6103516-3.2299805-5.4101563-3.6399536-5.2099609-.4300537.2099609.7599487 3.6699219 1.9299927 6.5297852-.6900024.5800781-1.3900146 1.2202148-2 1.8500977-1.25 1.2797852-2.0400391 2.5297852-1.8000488 2.7397461.2566452.2354431 1.33535-.5455627 4.6500244-2.6098633.0900269.1899414.1799927.3701172.2600098.5400391 2.3800049 4.9599609 2.8900146 4.8398438 3.4699707 4.5600586.5800171-.2802734 1-.6000977-1.3800049-5.5600586-.1199951-.25-.25-.5102539-.3999634-.7998047.1599731-.1103516.3200073-.2104492.4599609-.3100586 3.9100342-2.590332 3.8000488-2.9604492 3.460022-3.550293-.2899781-.5297853-.7199708-1.0400392-4.7700196 1.6401366z"/><path d="m123.6648865 86.0550766c-3.6118546-3.5604248-7.6469955-4.3084641-7.7592773-3.9091797-.2878418.8448715 6.4662247 2.4019623 10.2473145 12.4370117.1323242.3027344.239502.5478516.3271484.7490234.3642578.7983398.659668.8007813.9750977.7509766.3154297-.050293.5974121-.1186523.6264648-1.0893555.0151367-.2451172-.0209961-.5380859-.0734863-.902832-.2737809-2.2108764-1.8048631-5.5683365-4.3432618-8.0356445z"/><path d="m129.7705994 83.0101547c-1.2630768-2.1715317-3.977356-2.9291687-4.2199707-2.3901367-.1939163.41539.7191849 1.000885 2.2397461 3.5888672.8824005 1.4975281.9633942 2.0535126 1.9543457 1.8461914.3125-.065918.595459-.1279297.7128906-.5424805.0942383-.399414.0688476-1.2182617-.6870117-2.5024414z"/><path d="m27.5494118 109.9398422c-.621664 2.5569 1.1145592 4.2973022 1.7572632 3.8261719 2.4570675 2.2665176 7.188179-.7228165 5.5518188-4.28125-1.5485153-3.1251068-6.3142605-3.2372131-7.309082.4550781zm5.3002929 1.6767578c-.1887207.4130859-.6728516.809082-1.1901855.9848633-1.664465.5226746-2.4229279-1.146904-1.725769-2.6269531.3951416-.4726563 1.0411987-.7412109 2.0175171-.2905273.7001953.3300781 1.3181152 1.1640624.8984374 1.9326171z"/></g></g></g></svg>