<svg id="Capa_1" enable-background="new 0 0 300 300" height="512" viewBox="0 0 300 300" width="512" xmlns="http://www.w3.org/2000/svg"><path d="m247.47 300h-194.94c-29.01 0-52.53-23.52-52.53-52.53v-194.94c0-29.01 23.52-52.53 52.53-52.53h194.94c29.01 0 52.53 23.52 52.53 52.53v194.94c0 29.01-23.52 52.53-52.53 52.53z" fill="#b5b5b5"/><path d="m247.47 283.78h-194.94c-29.01 0-52.53-23.52-52.53-52.53v-178.72c0-29.01 23.52-52.53 52.53-52.53h194.94c29.01 0 52.53 23.52 52.53 52.53v178.72c0 29.01-23.52 52.53-52.53 52.53z" fill="#fff"/><g><path d="m150.24 225.62.24-27.14c-9.21.47-50.51 1.18-64.91.24-1.65-7.55-4.72-30.92-3.78-38.71 8.73-20.53 50.51-86.86 63.02-101.49 11.56.47 41.54 2.6 52.63 5.9l-.24 94.65s13.93.24 18.41.71c.94 3.07 0 37.53 0 37.53 0 .47-19.83.71-20.06.71-.24 0 .47 28.32.47 28.79-13.21 1.88-32.09 1.88-45.78-1.19zm1.89-108.57c-5.19 6.84-20.06 32.33-25.02 42.72l24.07-.24 2.36-42.25z" fill="#282d44"/></g></svg>