<svg xmlns="http://www.w3.org/2000/svg" width="97" height="97" fill="none" viewBox="0 0 97 97">
  <path fill="#8800e9" fill-rule="evenodd" d="M17.814 60.652c0-23.38 9.836-37.44 28.59-39.585 11.616-1.329 35.394 1.7 37.572 24.442 2.722 28.426-12.252 39.85-24.231 40.913-11.98 1.063-41.93-2.39-41.93-25.77Zm12.508-8.385c0-12.588 5.168-20.159 15.02-21.313 6.104-.715 18.596.915 19.74 13.16 1.43 15.305-6.436 21.456-12.73 22.028-6.294.572-22.03-1.287-22.03-13.875Z" clip-rule="evenodd"></path>
  <path stroke="#1B1B20" stroke-linecap="round" stroke-linejoin="round" stroke-width="3" d="M55.759 20.655s.267-.03.531.073"></path>
  <path fill="#fff" d="M62.848 27.184c3.457-4.764 8.758-3.38 9.68-3.304l5.916 9.527c-1.332-.23-4.625-.645-7.145-.46-3.15.23-7.99 6.53-8.451 6.453-.369-.062-2.459-3.15-3.457-4.687 0-.922.691-3.719 3.457-7.53Zm6.009 35.169c5.107 2.926 4.302 8.345 4.325 9.27l-8.836 6.905c.086-1.349.144-4.668-.31-7.153-.568-3.107-7.351-7.242-7.325-7.709.022-.373 2.868-2.782 4.288-3.94.917-.1 3.772.287 7.858 2.627Zm-45.091-.697c-5.107 2.926-4.488 8.096-4.51 9.021l9.062 6.443c-.086-1.349-.945-3.604-.49-6.09.567-3.106 7.351-7.241 7.324-7.708-.021-.373-1.955-3.635-3.376-4.793-.916-.1-3.924.787-8.01 3.127ZM33.4 26.477c-3.458-4.764-6.97-3.75-7.891-3.672L17.803 32.7c1.332-.23 4.625-.645 7.145-.461 3.15.23 7.398 5.47 7.86 5.393.368-.062 2.688-2.843 3.687-4.38 0-.922-.33-2.965-3.095-6.776Z"></path>
  <path stroke="#1B1B20" stroke-linecap="round" stroke-linejoin="round" stroke-width="3" d="M63.284 40.095c2.622-4.149 8.773-10.828 15.41-6.136m-46.436 4.439c-2.304-4.148-8.117-10.342-13.949-5.65m16.894 29.101c-6.479 2.463-9.378 9.017-5.247 15.259m26.991-13c3.921 1.809 8.574 8.332 6.583 15.234"></path>
  <path stroke="#1B1B20" stroke-linecap="round" stroke-linejoin="round" stroke-width="3" d="M44.87 30.948c-9.392 1.108-14.317 8.374-14.317 20.455 0 12.08 14.998 13.864 20.997 13.315 5.999-.549 13.497-6.452 12.134-21.14-1.09-11.751-12.998-13.316-18.815-12.63Z"></path>
  <path stroke="#1B1B20" stroke-linecap="round" stroke-linejoin="round" stroke-width="3" d="M42.371 16.055c-18.753 2.145-28.59 16.207-28.59 39.586.001 23.379 29.952 26.833 41.93 25.77 11.98-1.063 26.954-12.487 24.232-40.914-2.178-22.741-25.955-25.77-37.572-24.442Z"></path>
  <path stroke="#1B1B20" stroke-linecap="round" stroke-linejoin="round" stroke-width="3" d="M59.29 34.34c.476-4.15 3.468-11.166 11.822-10.823m-34.589 9.662c-.477-4.149-1.415-11.12-9.768-10.777m4.593 35.646c-4.175.09-11.438 3.748-11.87 12.097M61.463 59.99c5.598-.561 11.912 1.693 12.344 10.042M42.116 20.064c2.07-.4 6.96-.959 9.961 0m2.336 48.294c-.71.293-2.414.801-3.546.495"></path>
</svg>