<svg xmlns="http://www.w3.org/2000/svg" width="97" height="97" fill="none" viewBox="0 0 97 97">
            <path fill="#FFD000" d="M56.42 46.846c5.616 0 15.444 5.647 19.656 8.47 3.276 1.412 10.11 4.8 11.233 7.06 1.404 2.823-4.212 16.94-6.319 21.881-2.106 4.941-6.318 4.941-11.232 4.236-4.914-.706-29.485-12.706-31.59-15.53C36.06 70.14 39.57 60.258 43.08 53.2c3.51-7.059 6.318-6.353 13.339-6.353Z"></path>
            <path stroke="#1B1B20" stroke-linecap="round" stroke-linejoin="round" stroke-miterlimit="10" stroke-width="3" d="M33.931 74.48c-2.488-2.58-1.659-7.742 2.489-15.485 4.147-7.743 6.636-12.045 9.954-12.905 1.517-.394 3.36-.326 5.388.068m-17.83 28.323 21.403-12.905M33.93 74.48c.909.942 4.121 2.991 9.946 5.702M70.43 90.827c4.977 0 14.101-20.648 14.101-26.67 0-.71-.769-1.603-1.983-2.581M70.43 90.826 69.6 67.85m.83 22.978c-1.236 0-9.345-3.255-17.789-6.989m-.879-37.68c5.506 1.068 12.383 4.532 17.838 7.675 3.452 1.989 9.746 5.163 12.948 7.743M51.762 46.158c.655 4.062 1.931 10.31 3.573 15.418m27.213 0c-3.13 1.733-8.281 4.366-12.948 6.273m0 0c-3.828 1.564-7.33 2.64-9.125 2.33-1.886-.326-3.662-4.003-5.14-8.603m-7.4 20.28.268.133M20.88 56.867c-2.76-.648-4.303-4.408-4.63-11.278-.327-6.87-1.283-10.765.637-12.74.878-.904 2.005-.891 3.992-1.662m0 25.68 7.848-14.99m-7.848 14.99s7.228 0 10.922-.351M20.88 31.187c6.697-1.336 7.365-1.336 12.71-2.004 3.156-.395 6.68-.594 11.357-.594M20.88 31.187c2.11 2.403 4.634 8.013 7.848 10.69m16.219-13.288c3.34 0 4.15.112 5.827.594.67.193 1.655.184 2.19 3.665.534 3.481.595 7.172.595 9.028M44.946 28.59c-1.336 3.266-.854 4.82-2.858 8.828-2.004 4.009-2.672 6.013-6.013 6.68-1.51.303-4.455.189-7.348-2.22m35.476-4.351c1.854.303 3.753-1.608 5.696-5.733 1.943-4.124 3.516-6.267 2.841-7.964-.308-.776-1.001-1.054-2.023-2.03m-6.514 15.727-1.278-13.155m1.278 13.155-5.493-2.871M70.717 21.8c-3.763-2.517-4.172-2.687-7.275-4.451-1.833-1.042-5.051-2.26-7.915-3.446m15.19 7.897c-1.902.937-5.146 1.748-7.792 2.572m-7.398-10.469c-1.054-.436-2.4-.89-2.609-.913-.46-.052-1.66-.016-2.87 1.98-1.21 1.996-3.873 8.5-4.343 9.637l11.2-2.537m-1.378-8.167c-.39 2.194.317 4.583.671 5.778l.708 2.389m6.019 2.302c-2.383.741-3.272.672-4.215.281-.848-.351-1.45-1.389-1.804-2.583M40.531 41.827c.843 1.045 1 1 1 1"></path>
          </svg>
          