<svg id="Layer_1" enable-background="new 0 0 135 135" height="512" viewBox="0 0 135 135" width="512" xmlns="http://www.w3.org/2000/svg"><g id="Mail_Us"><g><g><g><g><path d="m109.9641647 21.6091156c-.2733459-2.4502506 1.6770248-4.9340668 4.1221924-5.2496643s4.9622803 1.5916004 5.3200378 4.0309563c.3577652 2.4393559-1.5056992 4.9890156-3.9385147 5.3888321s-5.014267-1.4193535-5.4560165-3.8449059" fill="#ffcb05"/></g></g><g><g><path d="m27.34165 35.3853035c7.0867023-1.7084007 15.5199833-.4535255 20.1104832 4.8175163-4.7263985 4.9060059-9.4527969 9.8120155-14.1791954 14.7180214.7254524-.7530212-12.174984-6.104538-13.3516941-6.4057274-2.4342537-.6230698-4.9392052-1.0152206-7.4606352-1.1591721-.9071074-.0517845-5.6306958.5453758-6.0275526-.0664673-1.6824713-2.5939101 18.6924076-11.3699111 20.9085941-11.9041709z" fill="#ffcb05"/></g></g><g><g><path d="m94.6449738 86.9175949c4.1075058 15.0105362-.4258728 32.0712814-11.4427032 43.0629501-.1188736-4.763382-.2978745-9.5791855-1.2943878-14.254158-.8787613-4.1225739-4.0622864-7.9185181-4.6765518-11.8806076-.5893707-3.8014984 3.855278-7.234581 6.3982697-9.5185699.8274992-.7432251 10.9354628-7.7016373 11.0153731-7.4096146z" fill="#ffcb05"/></g></g><g><g><path d="m10.7292938 114.4748154c2.1521626-.9935608 4.5718174-1.4002686 6.930542-1.1649017-3.5857735 2.6581345-5.7603388 7.1189957-5.6455059 11.5810928 3.5267391-.4505005 6.8933392-2.0752182 9.4403248-4.5558853.8359108 1.0937881 1.0802765 2.6135712.6293736 3.9142609 2.6963196-1.9856033 4.6864929-4.9107285 5.5434952-8.1477509.245657-.9278717.4006481-1.9065933.2018967-2.8460617-.5881615-2.7787399-5.1746464-8.0123215-7.7435074-7.7587891-1.9532089.1927719-4.3862715 2.3115158-5.7226372 3.6126556-1.0176373.9908142-2.6800099 4.9249726-3.6339818 5.3653794z" fill="#ffcb05"/></g></g><g><g><path d="m104.3628235 83.4255905c7.3683243-7.4617844 14.3597488-15.2957153 20.9386978-23.4619713" fill="#ffcb05"/></g></g><g><g><g><path d="m113.2748489 79.6328125c2.7728653-2.9954987 5.5457382-5.9909897 8.3186111-8.9864807" fill="#ffcb05"/></g></g><g><path d="m104.3562393 73.6009979c-4.561676 4.5155334-35.4377975 35.1807327-39.416626 40.2507324-.2805176-.4455566-.8181763-1.1298828-1.7811241-2.2073364.2560539-2.9973907-2.8750763-48.0776596-5.1020508-47.8474159-2.3035927.2379494 3.8710861 43.9709282 4.65271 47.3500404-11.5077286-12.6126709-43.2877006-41.4971466-43.8833008-40.8552246-.2145996.2311401 4.4336548 4.9289551 10.2786865 10.7348022-.4910889.392395-1.3348999 1.1802368-2.4394531 2.2672729-2.4033813 2.4047089-3.1145458 6.0663376-1.828064 9.2735596.3173828.831543.8236084 1.6062622 1.2912598 2.2958374-1.6910973 1.1718292-2.9056377 2.1219025-3.196106 4.1264648-.3240223 2.2308044.7928905 3.5025787 2.0211792 5.2810059 1.7872581 2.5690536 2.6004753 3.6292572 3.6226807 4.9856567 1.8857517 2.613678 5.1643257 2.847084 7.0407104 1.3193359.5527954-.4604492.7005005-.8236084.7286377-1.0414429.0263672-.2208862-.0811768-.3284302-.1989136-.4363403-.3900757-.3577194-.6831589-.1578369-1.3743286.0757446-1.7353401.5729065-3.2639275.2446747-4.3519897-1.2965698-4.2199593-5.6866455-4.8683186-6.1337204-5.3065186-6.8239746-.3762817-.5601196-.557251-1.2461548-.5515747-1.9124756.0207615-1.6264572.954031-2.3102875 1.9852295-3.6687622 4.7398605 6.9295425 10.3140793 13.1441116 14.1369629 16.6154175 2.3914757 2.0965347 4.3901672 1.8562622 6.5715942-.2174683 1.8966026-1.9317322 4.3188362-5.0004807 5.6186523-7.5473633 11.2775841 10.8636475 11.8149376 10.8577881 12.2272911 10.4425049.1124268-.1130981.1989136-.2539673-.0318604-.6900024 1.6814194-1.2818527 8.866539-8.0631561 10.411499-9.5186157 1.0359497 2.0655136 8.8781586 10.8398819 5.4802856 24.4849854-.0257721.1020508-.1410675.5585327-.1152954.4564819l-.020813.0831299-.0408936.1971436c-.4254227 1.8940582 2.3993378 3.2303619 3.9363403 1.5024414 5.1304474-6.0302124 9.9646149-12.4012527 12.4470825-19.8825684 2.326149-7.0375671 3.3899841-16.3779602-.0203857-22.8844604-.1953125-.3474731-.3488159-.6897583-.5496826-.9782104-.8434067-1.1508331-.6839523-1.0507584-1.4055786-1.7711182 7.8733063-7.5949783 23.9046783-23.2862778 31.1904907-31.4435463 2.8564529-3.21875 2.7694168-3.5435181 2.540596-3.7666626-.655975-.639698-3.6612622 2.3753891-24.5673291 23.0470009zm-57.0887413 35.0812989c-2.1586838 2.1978912-2.9502449 3.5920334-5.0613403 1.6767578-.7305908-.671875-1.5907593-1.548645-2.447937-2.4066772-5.1544228-5.2438507-8.2369766-8.9803925-12.0045166-13.8726807-.5825195-.7711792-1.0768433-1.414917-1.4125366-2.1578369-1.1942329-2.5350723-.8989868-5.6222916.9937134-8.0253296.9592285-1.194397 1.6578979-2.1072388 2.0040894-2.6370239 6.6034698 6.5557556 15.3659592 15.1726074 22.4799805 22.0444946-1.0445406 1.2138443-2.1663667 2.7903671-4.5514528 5.3782959zm44.5192833 9.418518c-2.7211304 4.4526978-5.9438477 8.2974243-8.5447388 11.3466797 2.0976105-8.3578415.1964188-16.8171997-4.6068726-22.9908447-1.5359726-1.9496384-2.3952026-2.4281693-2.4952393-2.520752 6.1180801-5.77034 12.7215958-12.0669098 18.7823486-17.9111328 5.817444 8.6460114 2.4120638 22.9786148-3.1354979 32.0760498z"/><path d="m115.341835 27.0875683c5.5008698-.7631493 6.8546143-7.2456303 3.5869751-10.8911133-4.0389404-4.4531755-11.0849686-1.1480799-9.6063843.1075439-3.6944503 4.7764225.1640702 11.5747681 6.0194092 10.7835694zm1.8814697-9.3964234c1.9455719 2.2375069 1.5772781 6.5716763-2.2128296 7.2894287-4.2685699.7550049-7.5441437-4.3758259-4.4613647-8.7364502 2.4680557-.57627 5.0576019-.4372472 6.6741943 1.4470215z"/><path d="m28.9801445 113.7801361c-.8897591.0699844-.1840382 2.5392303-2.402771 6.2945557-1.4974232 2.4947968-3.3491287 3.6063538-3.4492798 3.6947021-.0300293.0040283-.0634766.0151367-.0268555-.0319214l.0125732-.026062.0019531-.0048218c0-2.0852509-.7837791-2.9747772-1.850647-4.5171509-2.5774975 2.6461639-3.9203548 4.0332413-8.1246948 5.6795044l-.0083008.0061646-.0250854.0150146-.008606-.0158691c.0214348-.2497559-.2808104-3.5158539 1.8043213-7.0640259.9544401-1.6143265 1.9205399-2.4326859 3.8983154-4.4133301-1.2955837-.2263794-5.6662951.4018478-6.7091064.9870605.0347881-.1002502-.0298815-1.3103943 1.6326904-3.8047485 1.0604858-1.5119019 2.319458-2.6726074 3.5117798-3.4428101 2.3954468-1.5733032 4.2852783-1.7562866 4.2383423-1.9702148.0465965-.2518082-4.9774876-.1439514-8.8037109 4.635498-2.4753151 3.2341537-2.819417 7.3089294-2.8009033 7.2087402l.005127.222168c1.0229578-.4937286 3.1251316-1.631218 4.041687-1.5963135.0751953.0075073.2219238-.0093994.0633545.0940552-.8615236.7401047-1.9002228 2.9960175-2.3031006 4.1707764-.8925848 2.6009979-.8171873 4.8932419-.81427 4.7929077-.0134163.5694351.2432499 3.0126114.2536621 3.1149292 3.4316282-.9496384 6.0103226-1.7068253 9.3075562-4.5349731l.3331299-.2987671-.0015869.0001831.0019531-.0048828.0055542-.0001831.00354.0031128c.1325855.5027847.0408497 1.2390976-.0797729 1.6542358-.2764893.7614746-1.2307129 2.2422485-2.0994873 3.772644 2.7697582-1.2046204 5.3366261-2.1461258 7.1147461-3.9279175 3.8481483-3.6651306 4.4700718-8.7683716 3.6837769-10.4052124-.1345216-.2877806-.2677613-.2979124-.4058839-.2870482z"/><path d="m22.5146294 50.2637749c5.2616196 1.9231796 7.7345047 4.1747589 9.6870728 5.5066528-2.4303741 2.6421394-10.0973148 11.0538368-12.2243042 13.8991127-.4355049.1562195-.6791172.2823792-.2171631.3019409-.2606564.385788-.2601852.4876862.3169556-.0019531 3.8309727-.1457748 58.640667-9.0485191 58.2243004-11.2373695-.0186768-.0982666-.0478516-.1915283-.1657104-.2633667.4102783-1.7043457 1.0545044-6.9980469 1.7404175-13.1755371.5424576.1421242 47.874176 5.8080101 48.7879715 4.9213257.5480957.4370728.8827515.6627197.9344482.6097412.1454468-.1485596-1.8295364-2.3380127-4.8723831-5.5511475.6778793-.2099648 1.1670303-2.83284 1.2733154-3.5353394.2002335-1.3027649 2.008873-19.4522266 2.6143875-32.9568481-.0189972-2.2435541-1.930603-3.9638729-4.0332108-4.0393071-1.0747681-.0148425-33.0418625 4.7796607-32.9570313 5.412293.0906372.6758471 32.5071487-3.3147264 32.838562-3.2827153 1.0409164.0662127 1.9513702.9105859 1.9249878 1.9458013l-.0001831.145813c-.2512131 3.365365-2.3722305 32.3598251-2.1478271 35.7967529-.0951691-.1001663-40.2830734-42.1707039-40.677124-41.8380127-.104248.0880127-.178833.201416-.0951538.4868774-.5776978-.4513614-2.3951492 1.0145044-34.187191 34.2244263-3.7416687-4.2596931-10.1565895-5.3987274-15.7825928-4.8878174-10.5316029 1.010952-18.7945805 6.2909012-27.1800537 12.7596436-1.3064852 1.0040436-1.9036269 4.6662483 2.9612427 3.6768188.7923584-.1218872 1.5615845-.2511597 2.3127441-.300354 3.1959609-.3080102 7.0399818.0433196 10.9235229 1.3825683zm104.6966514-1.2679444c-8.8503799-2.3839493-41.1226654-4.9209175-47.303772-3.9847412 4.5800323-41.3500748 4.4262543-38.6574249 4.3678589-40.1725464 7.3242188 10.724968 32.9040833 35.4790841 42.9359131 44.1572876zm-43.5443725-45.1268296c-.0411377.008606-.0831909.026062-.1268311.0577393.03125-.076355.0507202-.1407471.0595093-.194397.0218506.0449219.0402222.0859985.0673218.1366577zm-.5629273.8047485c-3.1317215 8.182106-5.6829605 47.2238503-5.3322144 53.6878052-4.2671356-.5985641-50.6449013 9.1716423-57.1143761 11.088932 1.5891343-1.4665083 56.3811303-55.9522366 62.4465905-64.7767372zm-75.0288658 42.3926988c7.9732895-6.1956329 15.5532074-11.3359489 25.6011353-12.7373047 6.8852425-.9167862 11.5564651.6943741 15.3346558 3.5844116-5.3585167 5.5995636-10.8255806 11.3730965-16.059082 17.0427246-1.4040337-1.9076195-4.7147217-4.7095566-9.7046509-6.6956787-4.5661965-1.7244758-9.6440526-2.3083229-15.1720582-1.1941528z"/><path d="m125.3014908 59.963604c-.578331-.4667511-4.0686035 4.4513206-16.0157471 17.7638588-2.765625 3.0945435-5.0388794 5.5831909-4.9229126 5.6981201.3529282.350975 14.4289169-13.795433 20.2782593-21.9977455.8600464-1.2269287.78479-1.3638916.6604004-1.4642334z"/><path d="m121.593483 70.646347c-.2345581-.2171021-.4880981-.324646-3.5187378 2.9493408-1.6607056 1.7940063-5.0344238 5.8200073-4.7999268 6.0371094.2345581.2171021 3.9885864-3.4569092 5.649292-5.2509155 3.0306397-3.2739868 2.9038696-3.5184326 2.6693726-3.7355347z"/></g></g></g><g><g><g><path d="m33.4248466 40.2352715c-.0470581.31604-.1205444.5982666-.7340698.7272949-.6149292.1557617-1.7636719.0946045-4.0029907.2097168-1.2265625.0608521-3.1589355.2073975-4.803772.4693604-1.644165.2418213-3.0050659.5501709-3.1390381.2520142-.130249-.2825928 1.0383911-1.1448364 2.6939087-1.8271484 1.6438599-.7000732 3.7557983-1.1390991 5.1126709-1.2050171 2.4800415-.1270142 3.7370605.2131958 4.3399048.4765625.6049805.2923583.5804444.5811766.5333862.8972167z" fill="#fff"/></g></g></g><g><g><g><path d="m38.7764702 41.1642876c-.1481934.6217651-.2785034 1.1234131-.7655029 1.0073853-.2669067-.0635986-.7195435-.7041626-.5713501-1.3259888.1481934-.6217651.8410645-.9893799 1.1079102-.9257813.4870605.1160889.3771361.6225586.2289428 1.2443848z" fill="#fff"/></g></g></g><g><g><g><path d="m91.0602798 111.5783539c-.1559448-.034668-.2914429-.0948486-.2702637-.723877-.0126343-.6309204.2127686-1.8319092.1592407-4.2012939-.0261841-1.2966919-.2333374-3.3366089-.6502075-5.0233154-.3927002-1.6903687-.925354-3.0200195-.7740479-3.09552.131958-.0706787.9404907 1.1546021 1.5578003 2.8598633.6400757 1.6942749.99646 3.847168 1.0232544 5.2223511.0565796 2.5143433-.3154297 3.7755737-.512085 4.3910522-.2321165.6156005-.3777464.6053466-.5336913.5707397z" fill="#fff"/></g></g></g><g><g><g><path d="m89.4497452 116.2584076c-.3099365-.078125-.5585938-.1516113-.4362183-.637146.0671387-.2660522.4622803-.7736206.7722168-.6954956.3098755.078125.4171753.7124634.3500977.9784546-.1224366.4855346-.3762207.432373-.6860962.354187z" fill="#fff"/></g></g></g><g><g><g><path d="m21.7259941 111.8812103c.2001953.2491455.3498535.4612427-.2561646.9484253-.3320923.2669678-1.2071533.6379395-1.4073486.388855-.2002563-.2490845.3500977-1.0239868.6821899-1.2908936.6060181-.4872436.781067-.2954711.9813233-.0463867z" fill="#fff"/></g></g></g></g></g></svg>