<svg id="Capa_1" enable-background="new 0 0 300 300" height="512" viewBox="0 0 300 300" width="512" xmlns="http://www.w3.org/2000/svg"><path d="m247.47 300h-194.94c-29.01 0-52.53-23.52-52.53-52.53v-194.94c0-29.01 23.52-52.53 52.53-52.53h194.94c29.01 0 52.53 23.52 52.53 52.53v194.94c0 29.01-23.52 52.53-52.53 52.53z" fill="#b5b5b5"/><path d="m247.47 283.78h-194.94c-29.01 0-52.53-23.52-52.53-52.53v-178.72c0-29.01 23.52-52.53 52.53-52.53h194.94c29.01 0 52.53 23.52 52.53 52.53v178.72c0 29.01-23.52 52.53-52.53 52.53z" fill="#fff"/><g><path d="m138.91 226.09c-1.18-7.79 1.18-73.88 1.89-111.4 0 0-29.74 12.27-32.81 11.8-1.89-.24-11.33-37.76-10.62-38.71 4.25-4.72 59.24-26.43 64.91-28.32 5.19.47 24.07 3.54 27.38 6.37 0 0 0 150.58-1.42 160.02-2.13.71-47.68 2.6-49.33.24z" fill="#282d44"/></g></svg>