<svg xmlns="http://www.w3.org/2000/svg" width="97" height="97" fill="none" viewBox="0 0 97 97">
        <path fill="#FFD000" fill-rule="evenodd" d="M24.544 38.56c-2.977-.255-8.693-.637-9.05 4.468-.357 5.105-.238 24.08 0 26.123.238 2.042 2.262 5.105 5.716 5.233.478.017.966.029 1.457.04 2.345.056 4.746.113 6.361.845.91.773 2.258 4.64 3.312 7.661.696 1.998 1.264 3.627 1.491 3.749.357.19 1.61-2.224 3-4.905 1.394-2.687 2.927-5.641 3.834-6.505.405-.385 11.045-.193 17.688-.072 2.211.04 3.98.072 4.78.072 3.202 0 7.935-2.985 7.888-6.118-.046-3.134-.278-14.475-.51-16.514-.185-1.622-.076-5.949-.023-8.028.013-.535.023-.922.023-1.075v-.042c.003-.827.013-4.2-6.914-4.932-5.484-.58-9.593-.528-13.723-.477-1.183.015-2.367.03-3.586.03-2.683 0-7.53.135-11.985.26-4.638.129-8.85.246-9.76.187Zm18.429 14.295c-1.68-4.377-9.37-6.888-10.799-3.565-1.429 3.323.133 8.532 5.855 12.587 4.358 3.088 4.868 3.928 5.045 4.218.056.091.078.128.176.164.41.148 10.25-9.377 10.834-12.638.585-3.26.917-6.179-5.247-6.604-2.927-.202-5.127 2.107-5.864 5.838Z" clip-rule="evenodd"></path>
        <path stroke="#1B1B20" stroke-linecap="round" stroke-linejoin="round" stroke-width="3" d="M30.32 47.733c1.43-3.323 9.12-.811 10.8 3.566.737-3.73 2.936-6.04 5.864-5.838 6.163.425 5.831 3.343 5.247 6.604-.585 3.26-10.425 12.786-10.835 12.637-.41-.148.503-.325-5.22-4.38-5.723-4.056-7.285-9.266-5.855-12.589Zm.663-17.655c-.51-2.68-.128-4.788 0-6.192.127-1.404 2.552-3.83 6.892-3.701 4.34.127 34.078.51 37.907 1.02 3.83.511 5.106.894 5.616 4.723.51 3.83.638 21.826 0 22.975-.638 1.148-1.485 5.397-7.41 5.397M25.227 20.178c-1.12-1.219-3.438-5.604-3.519-6.59m1.575 11.926c-.69-.353-1.477-.871-2.703-1.287"></path>
        <path stroke="#1B1B20" stroke-linecap="round" stroke-linejoin="round" stroke-width="3" d="M48.825 35.465c-1.53.017-2.681 0-4.256 0-5.476 0-19.963.562-21.745.447-2.977-.255-8.692-.637-9.05 4.468-.357 5.105-.237 24.08 0 26.122.239 2.043 2.263 5.106 5.716 5.233 2.763.103 5.866 0 7.819.885 1.511 1.285 4.231 11.104 4.803 11.41.714.383 5.021-9.683 6.834-11.41.54-.513 19.266 0 22.468 0 3.201 0 7.934-2.984 7.888-6.118-.046-3.133-.278-14.474-.51-16.513-.232-2.04 0-8.357 0-9.103 0-.746.139-4.229-6.915-4.974a89.76 89.76 0 0 0-3.934-.33m-4.833 0h.676"></path>
      </svg>