<svg xmlns="http://www.w3.org/2000/svg" width="97" height="97" fill="none" viewBox="0 0 97 97">
  <path fill="#8800e9" d="M36.891 33.875c-8.086 4.21-12.119 5.878-18.048 7.457 1.078 5.789 3.077 23.939 8.086 31.052 5.93 8.421 14.554 12.105 21.562 13.684 7.013-1.099 15.093-5.79 21.562-13.684 5.554-6.778 8.061-22.28 9.14-31.052-4.313-1.053-11.281-3.61-16.921-6.358-6.768-3.296-12.09-7.691-13.781-10.438-1.692 2.747-7.652 7.284-11.6 9.34Z"></path>
  <path stroke="#1B1B20" stroke-linecap="round" stroke-linejoin="round" stroke-width="3" d="M34.226 28.677c-8.483 4.535-12.713 6.33-18.933 8.03 1.13 6.235 3.227 25.78 8.482 33.441 6.22 9.07 15.268 13.037 22.619 14.737 7.356-1.183 15.833-6.235 22.62-14.737 5.825-7.3 8.455-23.994 9.586-33.441-4.524-1.134-11.833-3.888-17.75-6.846-7.1-3.55-12.681-8.284-14.456-11.242-1.775 2.958-8.027 7.844-12.168 10.058Z"></path>
  <path fill="#1B1B20" stroke="#1B1B20" stroke-width="3" d="M36.12 51.231c1.541-1.915 5.78-1.915 8.669-1.915 3.852 0 9.053.191 10.594.958 1.927.958 1.927 5.268 1.927 8.141 0 2.874-.989 8.508-3.371 9.1-1.927.479-12.521 0-14.447 0-1.927 0-3.853-1.916-4.335-4.31-.283-1.41-.963-9.579.963-11.974Z"></path>
  <path fill="#8800e9" d="m42.762 65.505 1.023-6.648c-.34-.341-1.125-1.228-1.534-2.046-.511-1.023-.424-3.368 1.023-4.092 1.023-.511 3.069-.511 4.603.512 1.227.818 1.023 4.602-1.023 5.625l1.534 6.65h-5.626Z"></path>
  <path stroke="#1B1B20" stroke-width="3" d="M40.944 48.804c0-4.092 1.023-11.252 5.115-11.252 4.091 0 4.091 7.501 4.091 11.252"></path>
  <path stroke="#1B1B20" stroke-linecap="round" stroke-linejoin="round" stroke-width="3" d="m65.583 21.578 5.917-8.283m2.957 11.241 4.142-4.142M59.476 16.93l2.242-5.41m-33.464 8.302-5.303-5.936M20.492 24.67l-3.48-3.073"></path>
</svg>