<svg width="145" height="85" fill="none" xmlns="http://www.w3.org/2000/svg"><defs/><g clip-path="url(#clip0)" fill="#000"><path d="M113.802 66.8023c.962 6.2411 3.12 18.8876 12.346 16.3297 10.785-2.9893 12.676-21.2828 13.827-30.2341.82-6.3741 1.27-12.9807.395-19.3758-.753-5.5036-1.841-12.7836-5.8-17.0099-9.423-10.05742-14.345 12.0475-16.059 17.5156-.574 1.8328 2.207 2.9628 2.784 1.1204 1.383-4.4109 2.908-8.7823 4.684-13.0517 1.151-2.7666 2.216-7.3726 6.752-3.18 1.863 1.7219 2.677 5.5416 3.246 7.8297 2.06 8.2955 2.148 16.5335 1.122 24.9997-.986 8.1287-2.162 18.4801-7.428 25.1116-5.058 6.3713-10.567 2.0307-12.057-4.5532-.441-1.9505-.543-3.9922-.849-5.9675-.293-1.9044-3.259-1.4482-2.963.4655z"/><path d="M138.946 35.5499c-12.387-1.1547-24.676-2.9837-36.969-4.8604-13.3674-2.0404-26.3249-4.3441-38.6982-10.0525-4.7456-2.1893-18.455-11.93095-23.3009-5.2456-2.3657 3.2632 1.4598 6.8242 3.499 9.0403 2.9501 3.2055 5.9477 6.4095 10.28 7.4476 1.8732.449 2.1962-2.5357.3396-2.9807-3.0293-.7256-5.6309-3.5443-7.6871-5.6999-1.6625-1.7424-5.6661-4.5879-1.4747-6.7292 2.8031-1.4319 9.1321 2.8582 11.6077 4.1598 7.9175 4.1641 16.2534 7.4469 24.9658 9.5195 18.5078 4.4035 38.1728 6.6169 57.0978 8.3818 1.921.1785 2.267-2.8014.34-2.9807z"/><path d="M53.9236 28.6052c-10.2619-2.1737-20.4694-5.0367-30.9623-5.8719-4.663-.3713-9.7461-.5439-14.36178.3393-1.91989.367-3.65987.8069-3.65109 3.159.02391 6.265 11.98777 7.9965 16.20107 9.2495 4.04 1.2011 8.3336 1.4397 12.4469 2.3683 4.546 1.0263 9.0953 1.5557 13.7521 1.3012 1.9232-.1049 1.4508-3.0695-.4654-2.9647-6.9223.3777-13.4127-1.7004-20.1914-2.6267-3.3775-.4614-6.3386-1.6361-9.555-2.6186-1.5504-.4735-3.2372-.7211-4.7444-1.3256-2.0415-.8184-5.0926-1.786-2.3853-3.7109 1.1818-.8406 6.1006-.4271 7.0729-.428 1.541-.0006 3.0819.0703 4.619.174 3.3767.2298 6.7321.6825 10.0648 1.2625 7.3288 1.2749 14.544 3.1316 21.8184 4.6721 1.8898.4005 2.2166-2.5827.3415-2.9795z"/><path d="M33.8704 36.692c-1.5565 3.1752-.3841 6.7458 2.3563 8.8587 3.573 2.7552 8.3484 2.4488 12.587 2.8965 1.9194.2026 2.263-2.7777.3396-2.9807-3.6986-.3902-16.0254-.4652-12.4998-7.6543.8522-1.7377-1.9375-2.8446-2.7831-1.1202z"/><path d="M39.6845 44.9452c-2.5797 1.2641-3.4169 4.5927-2.034 7.0662 1.6538 2.9572 5.4163 3.405 8.3542 2.4072 1.8269-.6202.6086-3.3627-1.2111-2.7448-1.4175.4807-3.5098.4174-4.4403-.9648-.6086-.9037-.5175-2.4987.5421-3.0181 1.7281-.8478.5289-3.5992-1.2109-2.7457z"/><path d="M49.908 58.5059c-1.9467.4696-5.0582 1.5875-7.0216 1.0549-2.263-.6142-1.9172-4.0551-1.2167-5.8041.7188-1.7952-2.0656-2.9126-2.7841-1.1204-1.1056 2.7606-1.1249 6.428 1.0332 8.7231 2.4874 2.6456 7.4586.8327 10.4536.1111 1.8618-.4491 1.4181-3.4184-.4644-2.9646z"/><path d="M41.3487 61.6661c.1099 6.4288 7.3952 6.7426 12.4212 6.7013 9.1514-.0755 17.0328-5.2324 26.2031-4.9525 18.6866.5701 36.684 6.5269 55.53 5.9094 1.922-.0628 1.446-3.0268-.465-2.9647-16.045.526-31.795-3.2121-47.6236-5.2551-6.0862-.7861-12.0233-1.1395-17.9731.6495-3.5591 1.071-6.9679 2.5717-10.6547 3.1994-2.4593.4193-14.3762 1.8182-14.4573-2.9466-.0327-1.904-3.0137-2.2678-2.9806-.3407zM139.145 34.0567c-.645-2.9942-1.511-14.4045-5.586-17.0681-.278-.8348-1.271-1.0405-2.036-.71-.326-.6269-1.012-1.0171-1.817-.5764-2.461 1.3471-4.505 3.0838-5.853 5.5943-1.435 2.6738-3.264 7.2663-3.142 10.364.068 1.7036 1.053 2.455 2.337 2.8247-.017.1994-.04.3971-.053.5968-.121 1.7346 2.129 2.2324 2.881.73.149-.2951.285-.5886.414-.8809 3.727.3402 7.473.5586 11.202.8486.92.0716 1.866-.7325 1.653-1.723z"/><path d="M133.896 69.4793c-1.919-.11-3.838-.2199-5.757-.3308-2.382-.196-4.767-.3389-7.158-.4251-.073-.1281-.152-.2529-.224-.3818-.417-.741-1.351-1.0426-2.049-.7266-.983-.4914-2.472.1168-2.192 1.4985.23 1.1292.534 2.5175.98 3.909.167 1.0798.514 2.148 1.043 3.2027 1.025 2.0411 2.371 4.764 4.89 5.0339 5.584.598 8.969-5.4879 11.498-9.3917.579-.8912.179-2.3187-1.031-2.3881z"/></g><defs><clipPath id="clip0"><path transform="rotate(6.5 7.9082 0)" fill="#fff" d="M7.9082 0h137.221v69.855H7.9082z"/></clipPath></defs></svg>