<?xml version="1.0" encoding="UTF-8"?>
<!-- Generator: Adobe Illustrator 26.0.1, SVG Export Plug-In . SVG Version: 6.00 Build 0)  -->
<svg xmlns="http://www.w3.org/2000/svg" xmlns:xlink="http://www.w3.org/1999/xlink" version="1.1" id="Capa_1" x="0px" y="0px" viewBox="0 0 512.02 512.02" style="enable-background:new 0 0 512.02 512.02;" xml:space="preserve" width="512" height="512">
<g>
	<path style="fill-rule:evenodd;clip-rule:evenodd;" d="M512.02,259.566c0-36.41-17.636-65.14-51.344-65.14   c-33.85,0-54.331,28.73-54.331,64.856c0,42.811,24.179,64.429,58.882,64.429c16.925,0,29.726-3.84,39.397-9.245V286.02   c-9.672,4.836-20.765,7.822-34.846,7.822c-13.796,0-26.028-4.836-27.592-21.619h69.549   C511.736,270.375,512.02,262.979,512.02,259.566z M441.76,246.054c0-16.072,9.814-22.756,18.774-22.756   c8.676,0,17.921,6.685,17.921,22.756H441.76z"/>
	<path style="fill-rule:evenodd;clip-rule:evenodd;" d="M351.445,194.425c-13.938,0-22.899,6.543-27.877,11.094l-1.849-8.818h-31.29   v165.838l35.557-7.538l0.142-40.251c5.12,3.698,12.658,8.96,25.174,8.96c25.459,0,48.642-20.481,48.642-65.567   C399.803,216.897,376.335,194.425,351.445,194.425z M342.911,292.42c-8.392,0-13.369-2.987-16.783-6.685l-0.142-52.766   c3.698-4.125,8.818-6.969,16.925-6.969c12.943,0,21.903,14.507,21.903,33.139C364.814,278.198,355.996,292.42,342.911,292.42z"/>
	<polygon style="fill-rule:evenodd;clip-rule:evenodd;" points="241.503,186.034 277.202,178.354 277.202,149.481 241.503,157.02     "/>
	<rect x="241.503" y="196.843" style="fill-rule:evenodd;clip-rule:evenodd;" width="35.699" height="124.449"/>
	<path style="fill-rule:evenodd;clip-rule:evenodd;" d="M203.244,207.368l-2.276-10.525h-30.721v124.449h35.557v-84.341   c8.391-10.952,22.614-8.96,27.023-7.396v-32.712C228.276,195.137,211.635,192.008,203.244,207.368z"/>
	<path style="fill-rule:evenodd;clip-rule:evenodd;" d="M132.13,165.98l-34.704,7.396L97.284,287.3   c0,21.05,15.787,36.553,36.837,36.553c11.663,0,20.196-2.133,24.89-4.694v-28.872c-4.551,1.849-27.023,8.391-27.023-12.658v-50.491   h27.023v-30.294h-27.023L132.13,165.98z"/>
	<path style="fill-rule:evenodd;clip-rule:evenodd;" d="M35.984,232.969c0-5.547,4.551-7.68,12.089-7.68   c10.809,0,24.463,3.271,35.273,9.103v-33.424c-11.805-4.693-23.468-6.543-35.273-6.543C19.201,194.425,0,209.502,0,234.676   c0,39.255,54.047,32.997,54.047,49.922c0,6.542-5.689,8.676-13.654,8.676c-11.805,0-26.881-4.836-38.828-11.378v33.85   c13.227,5.689,26.597,8.107,38.828,8.107c29.583,0,49.922-14.65,49.922-40.108C90.173,241.361,35.984,248.899,35.984,232.969z"/>
</g>















</svg>
