<svg id="Capa_1" enable-background="new 0 0 300 300" height="512" viewBox="0 0 300 300" width="512" xmlns="http://www.w3.org/2000/svg"><path d="m247.47 300h-194.94c-29.01 0-52.53-23.52-52.53-52.53v-194.94c0-29.01 23.52-52.53 52.53-52.53h194.94c29.01 0 52.53 23.52 52.53 52.53v194.94c0 29.01-23.52 52.53-52.53 52.53z" fill="#b5b5b5"/><path d="m247.47 283.78h-194.94c-29.01 0-52.53-23.52-52.53-52.53v-178.72c0-29.01 23.52-52.53 52.53-52.53h194.94c29.01 0 52.53 23.52 52.53 52.53v178.72c0 29.01-23.52 52.53-52.53 52.53z" fill="#fff"/><g><path d="m182.34 143.48c7.08 1.18 24.55 12.27 24.55 35.17 0 34.22-28.56 50.98-60.42 50.98-30.68 0-49.56-12.98-57.35-21.24-.71-3.3 16.29-29.97 23.37-32.81 4.48 4.48 13.93 10.38 27.38 10.38 12.51 0 16.05-7.32 16.05-12.27 0-7.79-7.55-11.8-19.35-11.8-3.07 0-14.4.24-17.7.24-3.07-4.01-3.54-37.53 0-39.42 4.48 0 16.05.47 20.3.47 6.84 0 15.34-1.89 15.34-10.38 0-7.55-6.61-10.86-14.87-10.86-8.02 0-17.23 4.72-21.01 8.5-3.3-.24-22.42-24.78-26.43-29.74 9.44-10.39 24.78-21.95 54.99-21.95 32.1 0 55.47 17.47 55.47 45.79 0 21.48-12.98 33.52-20.3 37.53v1.41z" fill="#282d44"/></g></svg>