<svg id="Capa_1" enable-background="new 0 0 300 300" height="512" viewBox="0 0 300 300" width="512" xmlns="http://www.w3.org/2000/svg"><path d="m247.47 300h-194.94c-29.01 0-52.53-23.52-52.53-52.53v-194.94c0-29.01 23.52-52.53 52.53-52.53h194.94c29.01 0 52.53 23.52 52.53 52.53v194.94c0 29.01-23.52 52.53-52.53 52.53z" fill="#b5b5b5"/><path d="m247.47 283.78h-194.94c-29.01 0-52.53-23.52-52.53-52.53v-178.72c0-29.01 23.52-52.53 52.53-52.53h194.94c29.01 0 52.53 23.52 52.53 52.53v178.72c0 29.01-23.52 52.53-52.53 52.53z" fill="#fff"/><g><path d="m160.86 181.95 41.3-1.42c2.6 3.07 1.42 46.26-.71 46.02-4.48.71-101.02 1.42-102.67.24-1.42-.94-5.9-30.92-4.96-37.29 24.31-27.61 58.06-53.34 58.06-70.81 0-6.37-3.54-12.75-12.75-12.75-13.22 0-19.12 8.5-21.24 11.09-4.72-3.54-25.25-28.32-25.25-32.1 0-3.54 16.76-26.2 56.65-26.2 31.39 0 55.23 17.94 55.23 50.27 0 25.25-16.76 45.79-44.14 71.99z" fill="#282d44"/></g></svg>