<svg id="Layer_1" height="512" viewBox="0 0 32 32" width="512" xmlns="http://www.w3.org/2000/svg" data-name="Layer 1"><path d="m26.8 11.8c0 6.44-8.74 17.27-9.91 18.7-.06.07-.1.12-.12.14a1 1 0 0 1 -1.54 0c-.41-.49-10.03-12.08-10.03-18.84a10.8 10.8 0 0 1 20.72-4.27 10.658 10.658 0 0 1 .88 4.27z" fill="#999"/><path d="m26.8 11.8c0 6.44-8.74 17.27-9.91 18.7-.06.07-.1.12-.12.14a1 1 0 0 1 -1.54 0c-.41-.49-10.03-12.08-10.03-18.84a10.8 10.8 0 0 1 20.72-4.27 10.658 10.658 0 0 1 .88 4.27z" fill="#333"/><path d="m25 11.5c0 7.31-5.92 14.09-9 17.88-3.08-3.79-9-10.57-9-17.88 0-2.69 3.64-9 9-9s9 6.31 9 9z" fill="#f2f2f2" opacity=".21"/><path d="m25 11.5c0 7.31-5.92 14.09-9 17.88-3.08-3.79-9-10.57-9-17.88 0-2.69 3.64-9 9-9s9 6.31 9 9z" fill="#f2f2f2" opacity=".21"/><circle cx="16" cy="11.5" fill="#ccc" r="9"/><path d="m8.881 6.857h.006c-.006-.006 0-.011.01-.022a8.338 8.338 0 0 1 1.503-1.735l.005-.006c.111-.1.223-.191.34-.281a8 8 0 0 1 .9-.622h.005a8.5 8.5 0 0 1 11.5 2.71 8.332 8.332 0 0 1 1.05 2.368 8.242 8.242 0 0 1 .292 2.088 1.357 1.357 0 0 1 0 .143 8.54 8.54 0 0 1 -.292 2.226 8.387 8.387 0 0 1 -.882 2.088 8.644 8.644 0 0 1 -2.061 2.364 8.509 8.509 0 0 1 -12.583-2.364 8.192 8.192 0 0 1 -.874-2.088 8.334 8.334 0 0 1 -.3-2.226 1.357 1.357 0 0 1 0-.143 7.437 7.437 0 0 1 .059-.914 8.426 8.426 0 0 1 .241-1.174h-.01l.095-.3.064-.2a8.635 8.635 0 0 1 .393-.956 1.706 1.706 0 0 1 .1-.191 5.91 5.91 0 0 1 .414-.717" fill="#fff"/><path d="m21.265 18.178a8.509 8.509 0 0 1 -10.524 0z" fill="#db2e2e"/><path d="m24.208 13.726a8.387 8.387 0 0 1 -.882 2.088h-14.652a8.192 8.192 0 0 1 -.874-2.088z" fill="#db2e2e"/><path d="m24.5 11.357h-16.995a7.437 7.437 0 0 1 .059-.914 8.426 8.426 0 0 1 .236-1.174h16.4a8.242 8.242 0 0 1 .3 2.088z" fill="#db2e2e"/><path d="m23.151 6.905-14.27-.048h.006c-.006-.006 0-.011.01-.022a8.338 8.338 0 0 1 1.503-1.735l.005-.006c.111-.1.223-.191.34-.281h10.509a8.443 8.443 0 0 1 1.897 2.092z" fill="#db2e2e"/><path d="m16 3v8.357h-8.5a7.437 7.437 0 0 1 .059-.914 8.426 8.426 0 0 1 .241-1.174h-.01l.095-.3.064-.2a8.635 8.635 0 0 1 .393-.956 1.706 1.706 0 0 1 .1-.191 5.91 5.91 0 0 1 .414-.717l.032-.048h.006c-.006-.006 0-.011.01-.022a8.338 8.338 0 0 1 1.496-1.735l.005-.006c.111-.1.223-.191.34-.281a8 8 0 0 1 .9-.622h.005a8.461 8.461 0 0 1 4.35-1.191z" fill="#2e4593"/><g fill="#fff"><path d="m13.432 3.497.228.698h.737l-.597.432.228.698-.596-.432-.596.432.228-.698-.597-.432h.737z"/><path d="m10.69 6.132.228.698h.737l-.596.432.227.698-.596-.431-.596.431.228-.698-.596-.432h.736z"/><path d="m13.432 6.132.228.698h.737l-.597.432.228.698-.596-.431-.596.431.228-.698-.597-.432h.737z"/><path d="m8.318 9.9.229.7-.6-.436-.382.277a8.426 8.426 0 0 1 .235-1.172h-.01l.095-.3.064-.2.165.494.064.2h.738z"/><path d="m10.69 8.767.228.699h.737l-.596.431.227.698-.596-.431-.596.431.228-.698-.596-.431h.736z"/><path d="m13.432 8.767.228.699h.737l-.597.431.228.698-.596-.431-.596.431.228-.698-.597-.431h.737z"/></g></svg>