<svg id="Layer_1" height="512" viewBox="0 0 32 32" width="512" xmlns="http://www.w3.org/2000/svg" data-name="Layer 1"><path d="m26.8 11.8c0 6.44-8.74 17.27-9.91 18.7-.06.07-.1.12-.12.14a1 1 0 0 1 -1.54 0c-.41-.49-10.03-12.08-10.03-18.84a10.8 10.8 0 0 1 20.72-4.27 10.658 10.658 0 0 1 .88 4.27z" fill="#999"/><path d="m26.8 11.8c0 6.44-8.74 17.27-9.91 18.7-.06.07-.1.12-.12.14a1 1 0 0 1 -1.54 0c-.41-.49-10.03-12.08-10.03-18.84a10.8 10.8 0 0 1 20.72-4.27 10.658 10.658 0 0 1 .88 4.27z" fill="#333"/><path d="m25 11.5c0 7.31-5.92 14.09-9 17.88-3.08-3.79-9-10.57-9-17.88 0-2.69 3.64-9 9-9s9 6.31 9 9z" fill="#f2f2f2" opacity=".21"/><path d="m25 11.5c0 7.31-5.92 14.09-9 17.88-3.08-3.79-9-10.57-9-17.88 0-2.69 3.64-9 9-9s9 6.31 9 9z" fill="#f2f2f2" opacity=".21"/><circle cx="16" cy="11.5" fill="#ccc" r="9"/><path d="m24.5 11.5a8.33 8.33 0 0 1 -.08 1.158c-.021.154-.042.308-.074.462a8.249 8.249 0 0 1 -.654 2c-.095.2-.2.4-.308.59s-.223.377-.345.558-.25.356-.388.526a8.518 8.518 0 0 1 -5.351 3.106c-.133.016-.271.038-.4.048a8.372 8.372 0 0 1 -.9.052c-.255 0-.505-.011-.754-.032-.186-.016-.367-.037-.548-.064a8.518 8.518 0 0 1 -5.349-3.104c-.138-.17-.266-.346-.388-.526s-.239-.367-.345-.558-.213-.388-.308-.59a8.249 8.249 0 0 1 -.654-2c-.032-.154-.053-.308-.074-.462a8.33 8.33 0 0 1 -.08-1.164 8.778 8.778 0 0 1 .048-.924c.026-.234.064-.468.106-.7a8.249 8.249 0 0 1 .654-2c.1-.2.2-.4.308-.59s.223-.377.345-.558.25-.356.388-.526l1.451-1.433a8.513 8.513 0 0 1 3.9-1.669c.181-.027.362-.048.548-.064.252-.025.497-.036.752-.036a8.372 8.372 0 0 1 .9.048c.133.01.271.032.4.048a8.518 8.518 0 0 1 5.351 3.104c.138.17.266.346.388.526s.239.367.345.558.213.388.308.59a8.249 8.249 0 0 1 .654 2c.042.228.08.462.106.7a8.778 8.778 0 0 1 .048.926z" fill="#fff"/><path d="m24.5 11.5a8.33 8.33 0 0 1 -.08 1.158h-7.52v7.294a8.372 8.372 0 0 1 -.9.048c-.255 0-.505-.011-.754-.032v-7.31h-7.666a8.33 8.33 0 0 1 -.08-1.158 8.778 8.778 0 0 1 .048-.924h7.7v-7.544c.252-.021.497-.032.752-.032a8.372 8.372 0 0 1 .9.048v7.528h7.554a8.778 8.778 0 0 1 .046.924z" fill="#bd0034"/><path d="m10.8 4.769a8.513 8.513 0 0 1 3.9-1.669v6.488l-5.351-3.388z" fill="#1a237b"/><path d="m11.468 9.88h-3.814a8.249 8.249 0 0 1 .654-2z" fill="#1a237b"/><path d="m13.636 9.619h-1.291l-3.729-2.332c.106-.191.223-.377.345-.558 1.966 1.212 4.675 2.89 4.675 2.89z" fill="#bd0034"/><path d="m14.7 13.412v6.488a8.518 8.518 0 0 1 -5.351-3.1z" fill="#1a237b"/><path d="m11.468 13.12-3.16 2a8.249 8.249 0 0 1 -.654-2z" fill="#1a237b"/><path d="m13.636 13.381s-2.709 1.678-4.675 2.89c-.122-.181-.239-.367-.345-.558l3.729-2.332z" fill="#bd0034"/><path d="m22.651 6.2-5.351 3.388v-6.488a8.518 8.518 0 0 1 5.351 3.1z" fill="#1a237b"/><path d="m24.346 9.88h-3.814l3.16-2a8.249 8.249 0 0 1 .654 2z" fill="#1a237b"/><path d="m23.384 7.287-3.729 2.332h-1.291s2.709-1.678 4.675-2.89c.122.181.239.371.345.558z" fill="#bd0034"/><path d="m22.651 16.8a8.518 8.518 0 0 1 -5.351 3.1v-6.488z" fill="#1a237b"/><path d="m24.346 13.12a8.249 8.249 0 0 1 -.654 2l-3.16-2z" fill="#1a237b"/><path d="m23.384 15.713c-.106.191-.223.377-.345.558-1.966-1.212-4.675-2.89-4.675-2.89h1.291z" fill="#bd0034"/></svg>