<svg id="Layer_1" height="512" viewBox="0 0 32 32" width="512" xmlns="http://www.w3.org/2000/svg" data-name="Layer 1"><path d="m26.8 11.8c0 6.44-8.74 17.27-9.91 18.7-.06.07-.1.12-.12.14a1 1 0 0 1 -1.54 0c-.41-.49-10.03-12.08-10.03-18.84a10.8 10.8 0 0 1 20.72-4.27 10.658 10.658 0 0 1 .88 4.27z" fill="#999"/><path d="m26.8 11.8c0 6.44-8.74 17.27-9.91 18.7-.06.07-.1.12-.12.14a1 1 0 0 1 -1.54 0c-.41-.49-10.03-12.08-10.03-18.84a10.8 10.8 0 0 1 20.72-4.27 10.658 10.658 0 0 1 .88 4.27z" fill="#333"/><path d="m25 11.5c0 7.31-5.92 14.09-9 17.88-3.08-3.79-9-10.57-9-17.88 0-2.69 3.64-9 9-9s9 6.31 9 9z" fill="#f2f2f2" opacity=".21"/><path d="m25 11.5c0 7.31-5.92 14.09-9 17.88-3.08-3.79-9-10.57-9-17.88 0-2.69 3.64-9 9-9s9 6.31 9 9z" fill="#f2f2f2" opacity=".21"/><circle cx="16" cy="11.5" fill="#ccc" r="9"/><circle cx="16" cy="11.5" fill="#f2f2f2" r="8.5"/><g fill="#28292b"><path d="m9.768 8.48 1.779-1.871.398.413-1.779 1.872z"/><path d="m10.34 9.089 1.779-1.872.399.414-1.78 1.871z"/><path d="m10.895 9.671 1.78-1.871.398.413-1.78 1.871z"/><path d="m19.948 13.717.699-.735.398.414-.699.737z"/><path d="m19.266 15.267-.399-.414.684-.72.397.414z"/><path d="m20.527 14.319.692-.729.398.414-.694.73z"/><path d="m19.839 15.874-.399-.413.689-.727.398.415z"/><path d="m21.481 15.314-.397-.415.69-.726.397.413z"/><path d="m20.394 16.458-.398-.414.692-.729.397.415z"/><path d="m21.528 7.672.704.731-.395.416-.706-.732z"/><path d="m20.046 6.959.396-.417.689.715-.397.415z"/><path d="m19.465 7.557.396-.416 1.789 1.859-.396.416z"/><path d="m20.001 9.274.397-.415.695.721-.396.416z"/><path d="m18.907 8.138.395-.416.698.723-.398.415z"/><path d="m10.918 13.369.396-.416 1.791 1.86-.396.416z"/><path d="m11.825 14.687.697.724-.396.416-.698-.725z"/><path d="m10.337 13.968.396-.416.695.721-.397.414z"/><path d="m9.779 14.549.396-.416 1.79 1.858-.396.416z"/></g><path d="m19.033 11.5a3.028 3.028 0 1 1 -6.05 0 3.028 3.028 0 1 1 6.05 0z" fill="#2e4593"/><path d="m19.018 11.5a3.077 3.077 0 0 1 -.031.442 1.79 1.79 0 0 0 -1.654-1.779 1.3 1.3 0 0 0 -1.407.918c-.277.718-.307 1.592-1.524 1.592a1.359 1.359 0 0 1 -1.433-1.127.354.354 0 0 1 0-.046 3.249 3.249 0 0 1 .354-1.485 3.012 3.012 0 0 1 2.672-1.679 3.1 3.1 0 0 1 3.023 3.164z" fill="#db2e2e"/></svg>