<svg id="Layer_1" height="512" viewBox="0 0 32 32" width="512" xmlns="http://www.w3.org/2000/svg" data-name="Layer 1"><path d="m26.8 11.8c0 6.44-8.74 17.27-9.91 18.7-.06.07-.1.12-.12.14a1 1 0 0 1 -1.54 0c-.41-.49-10.03-12.08-10.03-18.84a10.8 10.8 0 0 1 20.72-4.27 10.658 10.658 0 0 1 .88 4.27z" fill="#999"/><path d="m26.8 11.8c0 6.44-8.74 17.27-9.91 18.7-.06.07-.1.12-.12.14a1 1 0 0 1 -1.54 0c-.41-.49-10.03-12.08-10.03-18.84a10.8 10.8 0 0 1 20.72-4.27 10.658 10.658 0 0 1 .88 4.27z" fill="#333"/><path d="m25 11.5c0 7.31-5.92 14.09-9 17.88-3.08-3.79-9-10.57-9-17.88 0-2.69 3.64-9 9-9s9 6.31 9 9z" fill="#f2f2f2" opacity=".21"/><path d="m25 11.5c0 7.31-5.92 14.09-9 17.88-3.08-3.79-9-10.57-9-17.88 0-2.69 3.64-9 9-9s9 6.31 9 9z" fill="#f2f2f2" opacity=".21"/><circle cx="16" cy="11.5" fill="#ccc" r="9"/><path d="m23.932 8.445a8.453 8.453 0 0 1 .568 3.055v.085a8.491 8.491 0 0 1 -8.5 8.415 8.41 8.41 0 0 1 -3.7-.85 8.481 8.481 0 0 1 -4.8-7.565v-.085a8.5 8.5 0 0 1 16.432-3.055z" fill="#3ec14d"/><path d="m24.5 11.585a8.491 8.491 0 0 1 -8.5 8.415 8.41 8.41 0 0 1 -3.7-.85 8.481 8.481 0 0 1 -4.8-7.565z" fill="#28292b"/><path d="m24.5 11.5v.085a8.51 8.51 0 0 1 -.515 2.837h-15.97a8.51 8.51 0 0 1 -.515-2.837v-.085a8.453 8.453 0 0 1 .568-3.055h15.864a8.453 8.453 0 0 1 .568 3.055z" fill="#fff"/><path d="m12.3 3.85v15.3a8.481 8.481 0 0 1 -4.8-7.565v-.085a8.5 8.5 0 0 1 4.8-7.65z" fill="#db2e2e"/></svg>