<svg id="Layer_1" height="512" viewBox="0 0 32 32" width="512" xmlns="http://www.w3.org/2000/svg" data-name="Layer 1"><path d="m26.8 11.8c0 6.44-8.74 17.27-9.91 18.7-.06.07-.1.12-.12.14a1 1 0 0 1 -1.54 0c-.41-.49-10.03-12.08-10.03-18.84a10.8 10.8 0 0 1 20.72-4.27 10.658 10.658 0 0 1 .88 4.27z" fill="#999"/><path d="m26.8 11.8c0 6.44-8.74 17.27-9.91 18.7-.06.07-.1.12-.12.14a1 1 0 0 1 -1.54 0c-.41-.49-10.03-12.08-10.03-18.84a10.8 10.8 0 0 1 20.72-4.27 10.658 10.658 0 0 1 .88 4.27z" fill="#333"/><path d="m25 11.5c0 7.31-5.92 14.09-9 17.88-3.08-3.79-9-10.57-9-17.88 0-2.69 3.64-9 9-9s9 6.31 9 9z" fill="#f2f2f2" opacity=".21"/><path d="m25 11.5c0 7.31-5.92 14.09-9 17.88-3.08-3.79-9-10.57-9-17.88 0-2.69 3.64-9 9-9s9 6.31 9 9z" fill="#f2f2f2" opacity=".21"/><circle cx="16" cy="11.5" fill="#ccc" r="9"/><path d="m24.5 11.479v.021a8.5 8.5 0 0 1 -17 0v-.021a8.5 8.5 0 0 1 17 0z" fill="#fff"/><path d="m24.5 11.479h-17a8.5 8.5 0 0 1 17 0z" fill="#e22b2b"/><g fill="#fff"><path d="m15.666 11.006a3.207 3.207 0 0 1 -.795.1 3.5 3.5 0 0 1 -3.412-3.573 3.5 3.5 0 0 1 3.412-3.573 3.16 3.16 0 0 1 .8.1 3.543 3.543 0 0 0 -2.617 3.474 3.544 3.544 0 0 0 2.612 3.472z"/><path d="m19.133 7.012.235.694-.562-.435v-.004l-.002.004-.561.435.235-.694.006-.004h-.003l-.578-.409.696.001.191-.697.214.696v.002l.001-.001.703-.001-.58.409h-.001z"/><path d="m15.618 7.012.234.694-.561-.435v-.004l-.002.004-.561.435.235-.694.006-.004h-.003l-.578-.409.695.001.19-.697.216.696v.002l.001-.001.703-.001-.58.409h-.002z"/><path d="m18.556 9.103.236.694-.562-.435-.001-.004-.001.004-.561.435.234-.694.007-.005h-.004l-.578-.408.697.002.19-.698.215.696-.001.002h.002l.703-.002-.581.408h-.001z"/><path d="m16.342 9.103.235.694-.561-.435-.001-.004-.002.004-.561.435.235-.694.006-.005h-.003l-.578-.408.696.002.191-.698.215.696-.002.002h.003l.702-.002-.579.408h-.003z"/><path d="m17.394 5.605.236.693-.562-.435-.001-.003-.002.003-.561.435.235-.693.007-.004h-.004l-.578-.41.696.001.191-.697.215.696-.001.003.001-.002.704-.001-.58.41h-.002z"/></g></svg>